<svg width="41" height="40" viewBox="0 0 41 40" fill="none" xmlns="http://www.w3.org/2000/svg">
<g clip-path="url(#clip0_7837_333)">
<path d="M17.5458 3.92874L0.95748 32.6584C0.657836 33.1773 0.500055 33.7658 0.5 34.365C0.499945 34.9641 0.657616 35.5527 0.957164 36.0715C1.25671 36.5904 1.68758 37.0213 2.20645 37.3208C2.72532 37.6204 3.3139 37.7781 3.91303 37.778H37.087C37.6861 37.7781 38.2747 37.6204 38.7936 37.3208C39.3124 37.0213 39.7433 36.5904 40.0428 36.0715C40.3424 35.5527 40.5001 34.9641 40.5 34.365C40.4999 33.7658 40.3422 33.1773 40.0425 32.6584L23.456 3.92874C23.1565 3.41003 22.7257 2.97928 22.207 2.6798C21.6883 2.38032 21.0999 2.22266 20.5009 2.22266C19.9019 2.22266 19.3135 2.38032 18.7948 2.6798C18.276 2.97928 17.8453 3.41003 17.5458 3.92874Z" fill="#EB5757"/>
<path d="M20.7201 12.79H20.2874C19.222 12.79 18.3584 13.6537 18.3584 14.719V23.9391C18.3584 25.0045 19.222 25.8681 20.2874 25.8681H20.7201C21.7854 25.8681 22.649 25.0045 22.649 23.9391V14.719C22.649 13.6537 21.7854 12.79 20.7201 12.79Z" fill="white"/>
<path d="M20.5037 33.1803C21.6886 33.1803 22.649 32.2198 22.649 31.035C22.649 29.8501 21.6886 28.8896 20.5037 28.8896C19.3189 28.8896 18.3584 29.8501 18.3584 31.035C18.3584 32.2198 19.3189 33.1803 20.5037 33.1803Z" fill="white"/>
</g>
<defs>
<clipPath id="clip0_7837_333">
<rect width="40" height="40" fill="white" transform="translate(0.5)"/>
</clipPath>
</defs>
</svg>
