<svg width="120" height="120" viewBox="0 0 120 120" fill="none" xmlns="http://www.w3.org/2000/svg">
<g clip-path="url(#clip0_2376_17450)">
<path d="M120 34.2849L60 0L0 34.2849V85.7151L60 120L120 85.7151V34.2849Z" fill="url(#paint0_linear_2376_17450)"/>
<mask id="mask0_2376_17450" style="mask-type:alpha" maskUnits="userSpaceOnUse" x="0" y="0" width="120" height="120">
<path d="M120 34.2849L60 0L0 34.2849V85.7151L60 120L120 85.7151V34.2849Z" fill="url(#paint1_linear_2376_17450)"/>
</mask>
<g mask="url(#mask0_2376_17450)">
<path fill-rule="evenodd" clip-rule="evenodd" d="M19.0003 87.4306V135.592C19.0003 136.363 19.6257 137 20.3924 137H42.6138H75.5105H80.2376H99.6078C100.375 137 101 136.363 101 135.592V112.964V50.4597V49.8081H86.8557C85.4935 49.8081 82.6644 50.0028 82.6644 46.8945L82.6345 33.0002H20.3922C19.6254 33.0002 19 33.6294 19 34.401V46.4226V51.5084V87.4306H19.0003Z" fill="white"/>
<path fill-rule="evenodd" clip-rule="evenodd" d="M101 112.964V50.4597V49.8081V49.5908C101 49.1863 100.828 49.1189 100.211 48.5122L84.9424 33.8617C84.2203 33.1725 84.1013 33.0002 83.6768 33.0002H82.6345H20.3922C19.6254 33.0002 19 33.6294 19 34.401V135.592C19 136.363 19.6254 137 20.3922 137H99.6076C100.374 137 101 136.363 101 135.592V112.964Z" fill="#F4F4F4"/>
<path fill-rule="evenodd" clip-rule="evenodd" d="M100.998 112.964V50.4597V49.8081C100.998 49.0515 100.752 49.0441 100.209 48.5122L84.9403 33.8617C84.2182 33.1725 84.0992 33.0002 83.6747 33.0002H82.6325H67.1406C86.0717 58.4965 87.151 104.456 73.1036 133.143C72.4559 134.476 71.7784 135.757 71.0713 137H75.5082H80.2353H99.6055C100.372 137 100.998 136.363 100.998 135.592V112.964Z" fill="#EBEBEB"/>
<path fill-rule="evenodd" clip-rule="evenodd" d="M82.6625 46.8943C82.6625 50.0026 85.4913 49.8078 86.8537 49.8078H100.998V49.5906C100.998 49.1861 100.827 49.1187 100.209 48.512L84.9407 33.8614C84.2186 33.1723 84.0996 33 83.6751 33H82.6328L82.6625 46.8943Z" fill="white"/>
<path fill-rule="evenodd" clip-rule="evenodd" d="M100.209 48.5122L84.9407 33.8617C84.2186 33.1725 84.0996 33.0002 83.6751 33.0002H82.6328L82.6625 46.8943C82.6625 50.0025 85.4913 49.8078 86.8537 49.8078H100.998V49.5906C100.998 49.1863 100.827 49.1189 100.209 48.5122Z" fill="#CDCDCD"/>
<path d="M88.4169 61.63H32.3685C31.2858 61.63 30.4082 60.7469 30.4082 59.6573C30.4082 58.5677 31.2858 57.6846 32.3685 57.6846H88.4169C89.4995 57.6846 90.3772 58.5677 90.3772 59.6573C90.3772 60.7469 89.4998 61.63 88.4169 61.63Z" fill="#DADADA"/>
<path d="M60.9673 69.6439H31.4409C30.8705 69.6439 30.4082 68.7608 30.4082 67.6712C30.4082 66.5816 30.8705 65.6985 31.4409 65.6985H60.9673C61.5377 65.6985 62 66.5816 62 67.6712C62 68.7608 61.5378 69.6439 60.9673 69.6439Z" fill="#DADADA"/>
<path d="M88.4169 88.6578H32.3685C31.2858 88.6578 30.4082 87.7747 30.4082 86.6851C30.4082 85.5955 31.2858 84.7124 32.3685 84.7124H88.4169C89.4995 84.7124 90.3772 85.5955 90.3772 86.6851C90.3772 87.7747 89.4998 88.6578 88.4169 88.6578Z" fill="#DADADA"/>
<path d="M88.4169 96.6031H32.3685C31.2858 96.6031 30.4082 95.72 30.4082 94.6304C30.4082 93.5408 31.2858 92.6577 32.3685 92.6577H88.4169C89.4995 92.6577 90.3772 93.5408 90.3772 94.6304C90.3772 95.72 89.4998 96.6031 88.4169 96.6031Z" fill="#DADADA"/>
<path d="M88.4169 104.549H32.3685C31.2858 104.549 30.4082 103.666 30.4082 102.576C30.4082 101.486 31.2858 100.603 32.3685 100.603H88.4169C89.4995 100.603 90.3772 101.486 90.3772 102.576C90.3772 103.666 89.4998 104.549 88.4169 104.549Z" fill="#DADADA"/>
</g>
<path d="M76.6497 76.6498L59.9998 93.3L58.6495 94.6497C57.8398 95.55 56.6698 96 55.4998 96C54.3298 96 53.1598 95.55 52.3501 94.6497L43.35 85.6497C41.55 83.9397 41.55 81.0597 43.35 79.3497C45.06 77.55 47.9394 77.55 49.6498 79.3497L55.5001 85.1097L60.0002 80.6097L70.3505 70.3498C72.0606 68.5501 74.94 68.5501 76.6503 70.3498C78.45 72.0598 78.45 74.9398 76.6497 76.6498Z" fill="url(#paint2_linear_2376_17450)"/>
</g>
<defs>
<linearGradient id="paint0_linear_2376_17450" x1="120" y1="-8.10749e-06" x2="-23.7938" y2="73.3642" gradientUnits="userSpaceOnUse">
<stop stop-color="#7D72A9"/>
<stop offset="1" stop-color="#9A8BDA"/>
</linearGradient>
<linearGradient id="paint1_linear_2376_17450" x1="120" y1="-8.10749e-06" x2="-23.7938" y2="73.3642" gradientUnits="userSpaceOnUse">
<stop stop-color="#7D72A9"/>
<stop offset="1" stop-color="#9A8BDA"/>
</linearGradient>
<linearGradient id="paint2_linear_2376_17450" x1="78" y1="69" x2="40.8326" y2="94.2839" gradientUnits="userSpaceOnUse">
<stop stop-color="#7D72A9"/>
<stop offset="1" stop-color="#9A8BDA"/>
</linearGradient>
<clipPath id="clip0_2376_17450">
<rect width="120" height="120" fill="white"/>
</clipPath>
</defs>
</svg>
