<svg width="24" height="24" viewBox="0 0 24 24" fill="none" xmlns="http://www.w3.org/2000/svg">
<path d="M19.4398 10.4326H17.3173C16.798 10.4326 16.3757 10.8549 16.3757 11.3741V17.0607C16.3757 17.5798 16.798 18.0022 17.3173 18.0022H18.1546V19.8959C18.1546 20.7665 17.4463 21.4748 16.5757 21.4748H16.0879V22.9295H16.5757C18.2483 22.9295 19.6094 21.5687 19.6094 19.8959V17.9971C21.1947 17.909 22.4576 16.5915 22.4576 14.9844V13.4504C22.4576 11.7863 21.1039 10.4326 19.4398 10.4326Z" fill="currentColor"/>
<path d="M6.68718 10.4328H4.56463C2.90057 10.4328 1.54688 11.7865 1.54688 13.4506V14.9846C1.54688 16.6485 2.90057 18.0022 4.56463 18.0022H6.68718C7.20647 18.0022 7.62871 17.5799 7.62871 17.0607V11.3743C7.62871 10.855 7.20647 10.4328 6.68718 10.4328Z" fill="currentColor"/>
<path d="M13.9054 20.4047H11.2081C10.4326 20.4047 9.80182 21.0355 9.80182 21.8109V22.5937C9.80182 23.3691 10.4326 23.9999 11.2081 23.9999H13.9054C14.3071 23.9999 14.6327 23.6744 14.6327 23.2726V21.132C14.6327 20.7302 14.3071 20.4047 13.9054 20.4047Z" fill="currentColor"/>
<path d="M13.2771 3.09338C15.4753 3.09338 17.2639 4.88176 17.2639 7.07994V8.97947C17.2816 8.97892 17.2992 8.97801 17.3172 8.97801H19.4397C19.7541 8.97801 20.061 9.01078 20.3573 9.07286V7.07994C20.3573 3.17614 17.1811 0 13.2771 0H10.7276C6.8236 0 3.64746 3.17614 3.64746 7.07994V9.07286C3.94372 9.01078 4.25061 8.97801 4.565 8.97801H6.68755C6.7055 8.97801 6.72308 8.97892 6.74084 8.97947V7.07994C6.74084 4.88176 8.52923 3.09338 10.7276 3.09338H13.2771Z" fill="currentColor"/>
</svg>
