<svg width="16" height="24" viewBox="0 0 16 24" fill="none" xmlns="http://www.w3.org/2000/svg">
<path fill-rule="evenodd" clip-rule="evenodd" d="M14.5814 9.23476C14.7333 9.29345 14.8629 9.40413 14.9441 9.55147C15.0624 9.76569 15.0599 10.0258 14.9397 10.238M14.9228 10.2663L8.00004 21.2741L8.00002 21.2742L6.4853 23.6726C6.29986 23.9655 5.93072 24.0788 5.61324 23.9431C5.29533 23.8064 5.12433 23.4597 5.2088 23.1239L7.30308 14.8125H1.67189C1.41577 14.8125 1.17957 14.6731 1.05596 14.4486C0.932347 14.2248 0.940597 13.9508 1.07724 13.7338L8.00002 2.77278L9.51474 0.327503C9.6468 0.118408 9.87429 0.000553535 10.1087 2.00009e-06C10.2022 -0.000221135 10.2968 0.0182226 10.3868 0.0569876C10.7047 0.193628 10.8757 0.54041 10.7913 0.876175L8.69698 9.18754L14.3281 9.18753C14.3281 9.18753 14.3281 9.18754 14.3281 9.18754C14.4162 9.18754 14.5019 9.20401 14.5814 9.23476" fill="url(#paint0_linear_7802_985)"/>
<defs>
<linearGradient id="paint0_linear_7802_985" x1="15.0313" y1="-1.6215e-06" x2="-4.46382" y2="5.82808" gradientUnits="userSpaceOnUse">
<stop stop-color="#7D72A9"/>
<stop offset="1" stop-color="#9A8BDA"/>
</linearGradient>
</defs>
</svg>
