<svg width="24" height="24" viewBox="0 0 24 24" fill="none" xmlns="http://www.w3.org/2000/svg">
<path d="M12 12C12.6187 12 13.1486 11.7795 13.5896 11.3385C14.0299 10.8982 14.25 10.3687 14.25 9.75C14.25 9.13125 14.0299 8.60138 13.5896 8.16037C13.1486 7.72012 12.6187 7.5 12 7.5C11.3813 7.5 10.8518 7.72012 10.4115 8.16037C9.9705 8.60138 9.75 9.13125 9.75 9.75C9.75 10.3687 9.9705 10.8982 10.4115 11.3385C10.8518 11.7795 11.3813 12 12 12ZM12 23.25C8.98125 20.6812 6.72675 18.2951 5.2365 16.0916C3.7455 13.8889 3 11.85 3 9.975C3 7.1625 3.90488 4.92188 5.71463 3.25312C7.52363 1.58437 9.61875 0.75 12 0.75C14.3812 0.75 16.4764 1.58437 18.2854 3.25312C20.0951 4.92187 21 7.1625 21 9.975C21 11.85 20.2549 13.8889 18.7646 16.0916C17.2736 18.2951 15.0188 20.6812 12 23.25Z" fill="url(#paint0_linear_7802_973)"/>
<defs>
<linearGradient id="paint0_linear_7802_973" x1="21" y1="0.749998" x2="-2.30168" y2="10.2609" gradientUnits="userSpaceOnUse">
<stop stop-color="#7D72A9"/>
<stop offset="1" stop-color="#9A8BDA"/>
</linearGradient>
</defs>
</svg>
