<svg width="110" height="36" viewBox="0 0 110 36" fill="none" xmlns="http://www.w3.org/2000/svg">
<path d="M37.3806 9.96145C32.2997 9.97036 28.3978 13.894 28.4118 18.9799C28.4258 24.0429 32.3583 27.9321 37.4608 27.9194C42.5352 27.9079 46.4576 23.9665 46.4372 18.8997C46.4168 13.8329 42.4856 9.95126 37.3806 9.96145ZM39.3844 23.9461C37.4824 24.7927 35.6836 24.4554 34.1215 23.0932C32.0986 21.3262 31.7651 17.9321 33.3462 15.6584C33.7809 15.0213 34.3589 14.4951 35.0339 14.1219C35.7088 13.7487 36.4619 13.539 37.2326 13.5097C38.0033 13.4803 38.7701 13.6322 39.4715 13.9529C40.1729 14.2737 40.7892 14.7545 41.2711 15.3567C42.0642 16.3294 42.4767 17.5617 42.4754 19.3771C42.4003 21.2129 41.5091 22.999 39.3844 23.9461Z" fill="#DB4437"/>
<path d="M56.9999 9.9546C51.886 9.96224 47.9611 13.8858 47.9751 18.9934C47.9853 24.0335 51.9382 27.9278 57.0356 27.9215C62.091 27.9151 66.0171 24.0106 66.0222 18.9896C66.026 13.8706 62.1075 9.94823 56.9999 9.9546ZM56.3481 24.325C54.4245 24.1099 52.7835 22.6446 52.1839 20.614C51.4201 18.0221 52.5022 15.22 54.7008 14.0832C57.8911 12.4282 61.6377 14.5377 62.0146 18.1952C62.04 18.4498 62.0451 18.7044 62.0489 18.7757C62.0477 22.2868 59.5053 24.6789 56.3481 24.325Z" fill="#F4B400"/>
<path d="M97.6577 21.6474C101.623 20.0052 105.592 18.3617 109.632 16.6901C109.322 15.9772 109.081 15.3419 108.778 14.7372C106.497 10.2076 101.59 8.60738 97.3497 11.0784C94.568 12.7003 93.3267 15.2897 93.1485 18.4291C92.7781 25.2197 99.2376 29.8218 105.481 27.221C107.12 26.5373 108.409 25.4119 109.44 23.9377L106.385 21.9135C103.872 25.6436 98.8748 24.797 97.6577 21.6474ZM100.548 13.5978C102.343 13.0886 104.198 13.799 104.95 15.3419L96.9894 18.6519C96.792 16.3833 98.3452 14.2216 100.548 13.5978Z" fill="#DB4437"/>
<path d="M26.9684 12.702H26.2427C22.5305 12.702 18.8182 12.702 15.1059 12.702C14.8742 12.702 14.6438 12.7313 14.4121 12.7466H14.2848C14.2491 12.7669 14.1842 12.786 14.1842 12.8077C14.1677 13.9764 14.1524 15.1463 14.1613 16.3163C14.1613 16.371 14.3879 16.4232 14.5088 16.4767C14.6548 16.4991 14.8018 16.5139 14.9493 16.5212C17.6992 16.5212 20.4498 16.5212 23.2014 16.5212C23.0079 18.9401 21.9665 20.8777 20.0009 22.3328C15.9181 25.3576 8.00089 24.8395 5.07792 18.1737C3.38346 14.3099 3.87741 10.5773 6.62597 7.33347C9.33507 4.13424 13.5642 3.01775 17.414 4.42195C18.7023 4.89172 19.8647 5.70266 21.0066 6.31628L23.6877 3.80451C23.6877 3.80451 23.4942 3.66065 23.4191 3.59064C18.5254 -0.944046 11.0104 -1.21394 5.51585 2.9541C-1.08502 7.96618 -1.8947 17.4378 3.80866 23.4429C7.16703 26.9782 11.3478 28.3684 16.1575 27.8337C21.4916 27.2405 25.6469 23.5664 26.8182 18.4919C27.2664 16.5929 27.3175 14.6217 26.9684 12.702Z" fill="#4285F4"/>
<path d="M84.7879 10.548H81.0846C81.0642 11.0013 81.0464 11.4265 81.0235 11.9306L80.2418 11.3373L79.3506 10.7415C77.6753 9.80838 75.9044 9.74854 74.1094 10.2539C70.6861 11.2164 68.0432 14.2896 67.6893 17.8033C67.2959 21.6951 68.7791 24.7402 72.1221 26.7873C74.8529 28.4589 78.5881 28.4067 80.8809 26.0235C80.9 26.0044 80.956 26.0235 81.0082 26.0235C81.0082 26.7619 81.0718 27.5028 80.9967 28.2284C80.7739 30.3634 79.6333 31.7459 77.7542 32.2565C75.7491 32.8013 73.7466 32.1495 72.5257 30.5302C72.2342 30.1482 71.9999 29.7167 71.7109 29.2571L68.3449 30.6575C70.2418 35.2074 75.2068 37.0941 79.7275 35.3678L81.8357 34.1495C81.8422 34.1512 81.849 34.1515 81.8557 34.1504C81.8624 34.1492 81.8687 34.1468 81.8743 34.143C81.88 34.1393 81.8848 34.1345 81.8884 34.1288C81.8921 34.1231 81.8945 34.1167 81.8955 34.11L82.0126 34.0018L82.14 33.8745L82.5702 33.4251L82.5639 33.4099C82.8872 32.9987 83.2628 32.618 83.5225 32.1699C84.4608 30.5518 84.8109 28.7746 84.8121 26.9197C84.8121 21.6187 84.8121 16.3172 84.8121 11.0153C84.8159 10.8752 84.7994 10.7301 84.7879 10.548ZM80.8491 21.4162C79.9859 23.499 78.1209 24.5684 75.9325 24.3354C73.9185 24.1215 72.1642 22.4576 71.7097 20.3074C71.6142 19.8555 71.5824 19.3882 71.548 19.0878C71.6231 16.9605 72.3347 15.331 74.0305 14.2438C74.532 13.913 75.0944 13.6852 75.6847 13.5738C76.2751 13.4624 76.8818 13.4695 77.4694 13.5947C78.057 13.7199 78.6139 13.9608 79.1075 14.3032C79.6012 14.6457 80.0218 15.0829 80.3449 15.5894C81.5352 17.4277 81.6816 19.4061 80.8491 21.4162Z" fill="#4285F4"/>
<path d="M87.4764 0.975586V27.3511H91.3593V0.975586H87.4764Z" fill="#0F9D58"/>
</svg>
