<svg width="19" height="19" viewBox="0 0 19 19" fill="none" xmlns="http://www.w3.org/2000/svg">
<path d="M9.44479 11.0698V8.52546H18.0189C18.1027 8.9689 18.146 9.49346 18.146 10.0613C18.146 11.9703 17.6242 14.3308 15.9423 16.0126C14.3064 17.7161 12.2163 18.6246 9.4475 18.6246C4.31546 18.6246 0 14.4443 0 9.3123C0 4.18026 4.31546 0 9.4475 0C12.2866 0 14.3091 1.11402 15.8288 2.56602L14.0333 4.36142C12.9437 3.33934 11.4673 2.54439 9.44479 2.54439C5.69716 2.54439 2.76611 5.56467 2.76611 9.3123C2.76611 13.0599 5.69716 16.0802 9.44479 16.0802C11.8756 16.0802 13.26 15.1041 14.1469 14.2172C14.8662 13.498 15.3393 12.4705 15.5259 11.0671L9.44479 11.0698Z" fill="white"/>
</svg>
