<svg width="73" height="24" viewBox="0 0 73 24" fill="none" xmlns="http://www.w3.org/2000/svg">
<path d="M31.2007 12.6301C31.2007 16.083 28.4994 18.6274 25.1844 18.6274C21.8694 18.6274 19.1682 16.083 19.1682 12.6301C19.1682 9.15287 21.8694 6.63281 25.1844 6.63281C28.4994 6.63281 31.2007 9.15287 31.2007 12.6301ZM28.567 12.6301C28.567 10.4724 27.0015 8.99604 25.1844 8.99604C23.3674 8.99604 21.8018 10.4724 21.8018 12.6301C21.8018 14.7662 23.3674 16.2642 25.1844 16.2642C27.0015 16.2642 28.567 14.7635 28.567 12.6301Z" fill="white"/>
<path d="M44.1792 12.6301C44.1792 16.083 41.478 18.6274 38.163 18.6274C34.8479 18.6274 32.1467 16.083 32.1467 12.6301C32.1467 9.15557 34.8479 6.63281 38.163 6.63281C41.478 6.63281 44.1792 9.15287 44.1792 12.6301ZM41.5456 12.6301C41.5456 10.4724 39.98 8.99604 38.163 8.99604C36.3459 8.99604 34.7803 10.4724 34.7803 12.6301C34.7803 14.7662 36.3459 16.2642 38.163 16.2642C39.98 16.2642 41.5456 14.7635 41.5456 12.6301Z" fill="white"/>
<path d="M56.6172 6.99514V17.7622C56.6172 22.1912 54.0052 24.0001 50.9173 24.0001C48.0106 24.0001 46.2612 22.056 45.6014 20.4661L47.8943 19.5116C48.3026 20.4877 49.3031 21.6396 50.9146 21.6396C52.8912 21.6396 54.1161 20.4201 54.1161 18.1245V17.2619H54.0241C53.4347 17.9893 52.299 18.6247 50.8659 18.6247C47.8673 18.6247 45.1201 16.0127 45.1201 12.6517C45.1201 9.26643 47.8673 6.63281 50.8659 6.63281C52.2963 6.63281 53.432 7.26823 54.0241 7.97396H54.1161V6.99784H56.6172V6.99514ZM54.3026 12.6517C54.3026 10.54 52.8939 8.99604 51.1012 8.99604C49.2842 8.99604 47.7618 10.54 47.7618 12.6517C47.7618 14.7419 49.2842 16.2642 51.1012 16.2642C52.8939 16.2642 54.3026 14.7419 54.3026 12.6517Z" fill="white"/>
<path d="M60.7406 0.684082V18.2596H58.1719V0.684082H60.7406Z" fill="white"/>
<path d="M70.7504 14.6037L72.7946 15.9665C72.1349 16.9426 70.545 18.6245 67.7978 18.6245C64.3908 18.6245 61.8464 15.9909 61.8464 12.6272C61.8464 9.06071 64.4125 6.62988 67.503 6.62988C70.6152 6.62988 72.1376 9.10667 72.6351 10.4451L72.9082 11.1265L64.8911 14.4469C65.5048 15.6502 66.4593 16.264 67.7978 16.264C69.1389 16.264 70.0691 15.6042 70.7504 14.6037ZM64.4584 12.446L69.8176 10.2207C69.5229 9.4717 68.636 8.94985 67.5923 8.94985C66.2538 8.94985 64.3908 10.1315 64.4584 12.446Z" fill="white"/>
<path d="M9.44479 11.0698V8.52546H18.0189C18.1027 8.9689 18.146 9.49346 18.146 10.0613C18.146 11.9703 17.6242 14.3308 15.9423 16.0126C14.3064 17.7161 12.2163 18.6246 9.4475 18.6246C4.31546 18.6246 0 14.4443 0 9.3123C0 4.18026 4.31546 0 9.4475 0C12.2866 0 14.3091 1.11402 15.8288 2.56602L14.0333 4.36142C12.9437 3.33934 11.4673 2.54439 9.44479 2.54439C5.69716 2.54439 2.76611 5.56467 2.76611 9.3123C2.76611 13.0599 5.69716 16.0802 9.44479 16.0802C11.8756 16.0802 13.26 15.1041 14.1469 14.2172C14.8662 13.498 15.3393 12.4705 15.5259 11.0671L9.44479 11.0698Z" fill="white"/>
</svg>
