<svg width="17" height="16" viewBox="0 0 17 16" fill="none" xmlns="http://www.w3.org/2000/svg">
<path d="M3.78368 2.16665C3.78346 2.60867 3.60765 3.03251 3.29494 3.34491C2.98222 3.65732 2.55821 3.8327 2.11618 3.83248C1.67415 3.83226 1.25032 3.65645 0.937914 3.34373C0.62551 3.03102 0.450127 2.60701 0.450348 2.16498C0.450569 1.72295 0.626376 1.29912 0.939093 0.986712C1.25181 0.674307 1.67582 0.498925 2.11785 0.499146C2.55988 0.499367 2.98371 0.675173 3.29612 0.98789C3.60852 1.30061 3.7839 1.72462 3.78368 2.16665ZM3.83368 5.06665L0.500348 5.06665L0.500348 15.5H3.83368L3.83368 5.06665ZM9.10035 5.06665L5.78368 5.06665L5.78368 15.5L9.06701 15.5V10.025C9.06701 6.97498 13.042 6.69165 13.042 10.025V15.5H16.3337V8.89165C16.3337 3.74998 10.4503 3.94165 9.06701 6.46665L9.10035 5.06665Z" fill="currentColor"/>
</svg>
