<svg width="24" height="24" viewBox="0 0 24 24" fill="none" xmlns="http://www.w3.org/2000/svg">
<path d="M23.209 5.35425C23.1112 4.7009 22.7827 4.10419 22.2828 3.67229C21.7829 3.24038 21.1448 3.00188 20.4842 3H3.51772C2.8571 3.00188 2.21903 3.24038 1.71915 3.67229C1.21928 4.10419 0.890696 4.7009 0.792969 5.35425L12.001 12.6068L23.209 5.35425Z" fill="currentColor"/>
<path d="M12.4072 14.13C12.2859 14.2085 12.1445 14.2502 12 14.2502C11.8555 14.2502 11.7141 14.2085 11.5927 14.13L0.75 7.11452V18.2333C0.750794 18.9668 1.04255 19.6701 1.56124 20.1888C2.07993 20.7075 2.78321 20.9992 3.51675 21H20.4832C21.2168 20.9992 21.9201 20.7075 22.4388 20.1888C22.9575 19.6701 23.2492 18.9668 23.25 18.2333V7.11377L12.4072 14.13Z" fill="currentColor"/>
</svg>
