<svg width="24" height="25" viewBox="0 0 24 25" fill="none" xmlns="http://www.w3.org/2000/svg">
<path d="M23.209 5.85425C23.1112 5.2009 22.7827 4.60419 22.2828 4.17229C21.7829 3.74038 21.1448 3.50188 20.4842 3.5L3.51772 3.5C2.8571 3.50188 2.21903 3.74038 1.71915 4.17229C1.21928 4.60419 0.890696 5.2009 0.792969 5.85425L12.001 13.1068L23.209 5.85425Z" fill="url(#paint0_linear_1802_11927)"/>
<path d="M12.4072 14.63C12.2859 14.7085 12.1445 14.7502 12 14.7502C11.8555 14.7502 11.7141 14.7085 11.5927 14.63L0.75 7.61452L0.75 18.7333C0.750794 19.4668 1.04255 20.1701 1.56124 20.6888C2.07993 21.2075 2.78321 21.4992 3.51675 21.5L20.4832 21.5C21.2168 21.4992 21.9201 21.2075 22.4388 20.6888C22.9575 20.1701 23.2492 19.4668 23.25 18.7333L23.25 7.61377L12.4072 14.63Z" fill="url(#paint1_linear_1802_11927)"/>
<defs>
<linearGradient id="paint0_linear_1802_11927" x1="23.209" y1="3.5" x2="9.20441" y2="20.1723" gradientUnits="userSpaceOnUse">
<stop stop-color="#7D72A9"/>
<stop offset="1" stop-color="#9A8BDA"/>
</linearGradient>
<linearGradient id="paint1_linear_1802_11927" x1="23.25" y1="7.61377" x2="3.06505" y2="24.3004" gradientUnits="userSpaceOnUse">
<stop stop-color="#7D72A9"/>
<stop offset="1" stop-color="#9A8BDA"/>
</linearGradient>
</defs>
</svg>
