<svg width="24" height="24" viewBox="0 0 24 24" fill="none" xmlns="http://www.w3.org/2000/svg">
<g clip-path="url(#clip0_7802_8512)">
<path d="M12.1774 0.00762572C10.6168 -0.0490383 9.06096 0.210552 7.60334 0.770781C6.14572 1.33101 4.81649 2.1803 3.6956 3.26756C2.57472 4.35481 1.68535 5.65757 1.081 7.09746C0.476644 8.53734 0.169798 10.0846 0.178917 11.6461C0.158808 13.2673 0.484421 14.8742 1.13406 16.3597C1.7837 17.8452 2.74245 19.1752 3.94644 20.261C4.04202 20.3462 4.11985 20.4494 4.17545 20.5647C4.23104 20.68 4.26331 20.8051 4.2704 20.933V23.0687C4.27697 23.2261 4.32173 23.3796 4.40082 23.5159C4.4799 23.6522 4.59094 23.7672 4.72437 23.851C4.85779 23.9349 5.0096 23.985 5.16671 23.9971C5.32382 24.0092 5.48152 23.983 5.62622 23.9206L8.02592 22.8767C8.23083 22.7993 8.45693 22.7993 8.66183 22.8767C9.79622 23.1829 10.9664 23.3362 12.1414 23.3327C15.2345 23.3374 18.2028 22.1133 20.3933 19.9295C22.5838 17.7457 23.8171 14.7812 23.8219 11.6881C23.8267 8.59505 22.6025 5.62674 20.4188 3.43622C18.235 1.2457 15.2705 0.012399 12.1774 0.00762572ZM19.3765 8.95848L15.8609 14.5498C15.7283 14.7603 15.5535 14.941 15.3476 15.0806C15.1416 15.2201 14.909 15.3154 14.6643 15.3605C14.4196 15.4056 14.1683 15.3995 13.9261 15.3426C13.6839 15.2856 13.4562 15.1791 13.2572 15.0297L10.4496 12.93C10.325 12.8365 10.1734 12.786 10.0177 12.786C9.8619 12.786 9.71033 12.8365 9.58572 12.93L5.7942 15.8096C5.68861 15.891 5.55757 15.9324 5.42436 15.9264C5.29114 15.9204 5.16437 15.8674 5.06655 15.7767C4.96873 15.6861 4.90619 15.5637 4.89004 15.4314C4.87388 15.299 4.90515 15.1652 4.97831 15.0537L8.49386 9.46242C8.62645 9.25191 8.80124 9.07118 9.0072 8.93163C9.21316 8.79208 9.44581 8.69675 9.69047 8.65165C9.93514 8.60655 10.1865 8.61266 10.4287 8.66961C10.6708 8.72655 10.8986 8.83308 11.0975 8.98248L13.9052 11.0822C14.0298 11.1757 14.1813 11.2262 14.3371 11.2262C14.4929 11.2262 14.6444 11.1757 14.7691 11.0822L18.5606 8.20258C18.6662 8.12114 18.7972 8.07976 18.9304 8.08578C19.0636 8.0918 19.1904 8.14483 19.2882 8.23546C19.386 8.32609 19.4486 8.44845 19.4647 8.58081C19.4809 8.71318 19.4496 8.84699 19.3765 8.95848Z" fill="currentColor"/>
</g>
<defs>
<clipPath id="clip0_7802_8512">
<rect width="24" height="24" fill="white"/>
</clipPath>
</defs>
</svg>
