<svg width="21" height="20" viewBox="0 0 21 20" fill="none" xmlns="http://www.w3.org/2000/svg">
<path d="M19.1561 7.60937C19.0778 7.36327 18.9271 7.14654 18.7235 6.98761C18.52 6.82868 18.2732 6.73496 18.0154 6.71875L13.3748 6.39844L11.6561 2.0625C11.5622 1.82375 11.3989 1.61867 11.1871 1.47382C10.9754 1.32896 10.7251 1.25099 10.4686 1.25C10.212 1.25099 9.96171 1.32896 9.74999 1.47382C9.53827 1.61867 9.37492 1.82375 9.28106 2.0625L7.53106 6.42187L2.92169 6.71875C2.66427 6.73601 2.41796 6.83012 2.21461 6.9889C2.01126 7.14768 1.86023 7.36382 1.78106 7.60937C1.69977 7.85869 1.69502 8.12664 1.76743 8.37868C1.83984 8.63072 1.98608 8.85529 2.18731 9.02344L5.73419 12.0234L4.6795 16.1719C4.60653 16.4525 4.61966 16.7486 4.71719 17.0217C4.81472 17.2948 4.99213 17.5322 5.22638 17.7031C5.45374 17.8663 5.72463 17.9579 6.00438 17.9663C6.28412 17.9746 6.55999 17.8993 6.79669 17.75L10.4608 15.4297H10.4764L14.4217 17.9219C14.6241 18.0534 14.86 18.1239 15.1014 18.125C15.2984 18.1234 15.4925 18.0767 15.6687 17.9884C15.8449 17.9002 15.9985 17.7726 16.1177 17.6157C16.2369 17.4588 16.3186 17.2766 16.3564 17.0832C16.3942 16.8898 16.3871 16.6903 16.3358 16.5L15.2186 11.9609L18.7498 9.02344C18.951 8.85529 19.0973 8.63072 19.1697 8.37868C19.2421 8.12664 19.2374 7.85869 19.1561 7.60937Z" fill="#FFC700"/>
</svg>
