<svg width="24" height="25" viewBox="0 0 24 25" fill="none" xmlns="http://www.w3.org/2000/svg">
<path d="M12 11.75C14.8995 11.75 17.25 9.3995 17.25 6.5C17.25 3.60051 14.8995 1.25 12 1.25C9.10051 1.25 6.75 3.60051 6.75 6.5C6.75 9.3995 9.10051 11.75 12 11.75Z" fill="currentColor"/>
<path d="M15.7275 13.25H8.2725C6.67584 13.252 5.14515 13.8871 4.01614 15.0161C2.88713 16.1451 2.25198 17.6758 2.25 19.2725V23C2.25 23.1989 2.32902 23.3897 2.46967 23.5303C2.61032 23.671 2.80109 23.75 3 23.75H21C21.1989 23.75 21.3897 23.671 21.5303 23.5303C21.671 23.3897 21.75 23.1989 21.75 23V19.2725C21.748 17.6758 21.1129 16.1451 19.9839 15.0161C18.8549 13.8871 17.3242 13.252 15.7275 13.25Z" fill="currentColor"/>
</svg>
