<svg width="48" height="48" viewBox="0 0 48 48" fill="none" xmlns="http://www.w3.org/2000/svg">
<g clip-path="url(#clip0_1802_12159)">
<path d="M48 13.714L24 0L0 13.714V34.286L24 48L48 34.286V13.714Z" fill="url(#paint0_linear_1802_12159)"/>
<path d="M35.5202 29.4863L27.112 14.9226C25.7386 12.5167 22.2657 12.5167 20.8973 14.9226L12.4841 29.4863C11.1107 31.8921 12.82 34.8809 15.5915 34.8809H32.3832C35.1546 34.8809 36.8936 31.8625 35.5202 29.4863ZM23.9997 31.6501C23.2685 31.6501 22.6609 31.0424 22.6609 30.3113C22.6609 29.5801 23.2685 28.9725 23.9997 28.9725C24.7308 28.9725 25.3385 29.5801 25.3088 30.3458C25.3434 31.0424 24.7012 31.6501 23.9997 31.6501ZM25.2199 22.9948C25.1606 24.0323 25.0964 25.0648 25.0371 26.1022C25.0075 26.4382 25.0075 26.7444 25.0075 27.0754C24.9779 27.6238 24.5481 28.0487 23.9997 28.0487C23.4513 28.0487 23.0265 27.6534 22.9919 27.1051C22.903 25.4896 22.8091 23.9038 22.7202 22.2884C22.6905 21.8635 22.6609 21.4337 22.6263 21.0089C22.6263 20.3074 23.0215 19.7294 23.6638 19.5466C24.306 19.3934 24.9433 19.6997 25.2199 20.3074C25.3138 20.5198 25.3434 20.7322 25.3434 20.9792C25.3138 21.6561 25.2496 22.3279 25.2199 22.9948Z" fill="white"/>
</g>
<defs>
<linearGradient id="paint0_linear_1802_12159" x1="48" y1="-3.243e-06" x2="-9.51752" y2="29.3457" gradientUnits="userSpaceOnUse">
<stop stop-color="#7D72A9"/>
<stop offset="1" stop-color="#9A8BDA"/>
</linearGradient>
<clipPath id="clip0_1802_12159">
<rect width="48" height="48" fill="white"/>
</clipPath>
</defs>
</svg>
