<svg width="24" height="24" viewBox="0 0 24 24" fill="none" xmlns="http://www.w3.org/2000/svg">
<path d="M22.424 1.57593C21.8952 1.04725 21.1781 0.750244 20.4304 0.750244C19.6826 0.750244 18.9655 1.04725 18.4367 1.57593L17.1939 2.81871L21.1812 6.80594L22.424 5.56316C22.9526 5.03439 23.2496 4.31727 23.2496 3.56954C23.2496 2.82181 22.9526 2.1047 22.424 1.57593ZM20.0415 7.94561L16.0543 3.95838L7.03146 12.9812C6.36855 13.6438 5.88124 14.4611 5.61359 15.3594L4.75428 18.2434C4.71279 18.3826 4.70969 18.5304 4.74532 18.6712C4.78095 18.812 4.85397 18.9405 4.95666 19.0432C5.05935 19.1459 5.18789 19.2189 5.32868 19.2546C5.46947 19.2902 5.61728 19.2871 5.75645 19.2456L8.64053 18.3863C9.53876 18.1186 10.3561 17.6313 11.0187 16.9684L20.0415 7.94561Z" fill="currentColor"/>
<path d="M4.72048 4.77783C3.86584 4.77783 3.0462 5.11734 2.44188 5.72166C1.83755 6.32599 1.49805 7.14562 1.49805 8.00027V19.2788C1.49805 20.1334 1.83755 20.9531 2.44188 21.5574C3.0462 22.1617 3.86584 22.5012 4.72048 22.5012H15.999C16.8537 22.5012 17.6733 22.1617 18.2776 21.5574C18.8819 20.9531 19.2214 20.1334 19.2214 19.2788V13.6395C19.2214 13.4259 19.1366 13.221 18.9855 13.0699C18.8344 12.9188 18.6295 12.8339 18.4158 12.8339C18.2022 12.8339 17.9973 12.9188 17.8462 13.0699C17.6951 13.221 17.6102 13.4259 17.6102 13.6395V19.2788C17.6102 19.7061 17.4405 20.1159 17.1383 20.4181C16.8361 20.7203 16.4263 20.89 15.999 20.89H4.72048C4.29316 20.89 3.88334 20.7203 3.58118 20.4181C3.27902 20.1159 3.10926 19.7061 3.10926 19.2788V8.00027C3.10926 7.57295 3.27902 7.16313 3.58118 6.86096C3.88334 6.5588 4.29316 6.38905 4.72048 6.38905H10.3597C10.5734 6.38905 10.7783 6.30417 10.9294 6.15309C11.0805 6.00201 11.1654 5.7971 11.1654 5.58344C11.1654 5.36978 11.0805 5.16487 10.9294 5.01379C10.7783 4.86271 10.5734 4.77783 10.3597 4.77783H4.72048Z" fill="currentColor"/>
</svg>
