<svg width="20" height="20" viewBox="0 0 20 20" fill="none" xmlns="http://www.w3.org/2000/svg">
<path d="M8.33334 12.5L12.6583 9.99996L8.33334 7.49996L8.33334 12.5ZM17.9667 5.97496C18.075 6.36663 18.15 6.89163 18.2 7.55829C18.2583 8.22496 18.2833 8.79996 18.2833 9.29996L18.3333 9.99996C18.3333 11.825 18.2 13.1666 17.9667 14.025C17.7583 14.775 17.275 15.2583 16.525 15.4666C16.1333 15.575 15.4167 15.65 14.3167 15.7C13.2333 15.7583 12.2417 15.7833 11.325 15.7833L10 15.8333C6.50834 15.8333 4.33334 15.7 3.47501 15.4666C2.72501 15.2583 2.24167 14.775 2.03334 14.025C1.92501 13.6333 1.85001 13.1083 1.80001 12.4416C1.74167 11.775 1.71667 11.2 1.71667 10.7L1.66667 9.99996C1.66667 8.17496 1.80001 6.83329 2.03334 5.97496C2.24167 5.22496 2.72501 4.74163 3.47501 4.53329C3.86667 4.42496 4.58334 4.34996 5.68334 4.29996C6.76667 4.24163 7.75834 4.21663 8.67501 4.21663L10 4.16663C13.4917 4.16663 15.6667 4.29996 16.525 4.53329C17.275 4.74163 17.7583 5.22496 17.9667 5.97496Z" fill="currentColor"/>
</svg>
