<svg width="233" height="377" viewBox="0 0 233 377" fill="none" xmlns="http://www.w3.org/2000/svg">
<path d="M89.936 213.32V215H82.592C81.504 215 80.96 214.44 80.96 213.32V205.48C80.96 204.36 81.504 203.8 82.592 203.8H89.872V205.48H83.872C83.552 205.48 83.3387 205.533 83.232 205.64C83.1253 205.747 83.072 205.96 83.072 206.28V208.44H89.712V210.12H83.072V212.52C83.072 212.84 83.1253 213.053 83.232 213.16C83.3387 213.267 83.552 213.32 83.872 213.32H89.936ZM98.7739 203.8V213.56C98.7739 214.52 98.2939 215 97.3339 215H94.3739C93.0939 215 92.1925 214.637 91.6699 213.912C91.1579 213.187 90.9019 212.131 90.9019 210.744C90.9019 209.357 91.1579 208.307 91.6699 207.592C92.1819 206.877 93.0832 206.52 94.3739 206.52H96.9019V203.8H98.7739ZM96.9019 207.96H94.8379C94.4005 207.96 94.0432 208.024 93.7659 208.152C93.4885 208.28 93.2859 208.483 93.1579 208.76C93.0299 209.037 92.9445 209.325 92.9019 209.624C92.8592 209.912 92.8379 210.285 92.8379 210.744C92.8379 211.203 92.8592 211.581 92.9019 211.88C92.9445 212.168 93.0299 212.456 93.1579 212.744C93.2859 213.021 93.4885 213.229 93.7659 213.368C94.0432 213.496 94.4005 213.56 94.8379 213.56H96.4219C96.7419 213.56 96.9019 213.4 96.9019 213.08V207.96ZM100.252 215V207.96C100.252 207 100.732 206.52 101.692 206.52H109.036C110.081 206.52 110.892 206.739 111.468 207.176C112.044 207.613 112.332 208.36 112.332 209.416V215H110.46V209.912C110.46 209.251 110.321 208.76 110.044 208.44C109.766 208.12 109.313 207.96 108.684 207.96H107.228V215H105.356V207.96H102.604C102.284 207.96 102.124 208.12 102.124 208.44V215H100.252ZM114.615 207.368C115.329 206.739 116.476 206.424 118.055 206.424C119.633 206.424 120.78 206.739 121.495 207.368C122.209 207.997 122.567 209.123 122.567 210.744C122.567 212.387 122.209 213.523 121.495 214.152C120.791 214.781 119.644 215.096 118.055 215.096C116.465 215.096 115.313 214.781 114.599 214.152C113.895 213.523 113.543 212.387 113.543 210.744C113.543 209.123 113.9 207.997 114.615 207.368ZM115.479 210.744C115.479 211.8 115.671 212.552 116.055 213C116.439 213.437 117.105 213.656 118.055 213.656C119.004 213.656 119.671 213.437 120.055 213C120.439 212.552 120.631 211.8 120.631 210.744C120.631 209.699 120.439 208.957 120.055 208.52C119.671 208.083 119.004 207.864 118.055 207.864C117.105 207.864 116.439 208.083 116.055 208.52C115.671 208.957 115.479 209.699 115.479 210.744ZM123.783 215V207.96C123.783 207 124.263 206.52 125.223 206.52H128.199C129.244 206.52 130.055 206.739 130.631 207.176C131.207 207.613 131.495 208.36 131.495 209.416V215H129.623V209.912C129.623 209.251 129.484 208.76 129.207 208.44C128.93 208.12 128.476 207.96 127.847 207.96H126.135C125.815 207.96 125.655 208.12 125.655 208.44V215H123.783ZM137.69 215H136.522C135.509 215 134.736 214.787 134.202 214.36C133.669 213.933 133.402 213.224 133.402 212.232V207.96H132.234V206.52H133.402V203.8H135.274V206.52H137.69V207.96H135.274V211.848C135.274 212.467 135.434 212.909 135.754 213.176C136.074 213.432 136.565 213.56 137.226 213.56H137.69V215ZM139.083 207.368C139.798 206.739 140.945 206.424 142.523 206.424C144.102 206.424 145.249 206.739 145.963 207.368C146.678 207.997 147.035 209.123 147.035 210.744C147.035 212.387 146.678 213.523 145.963 214.152C145.259 214.781 144.113 215.096 142.523 215.096C140.934 215.096 139.782 214.781 139.067 214.152C138.363 213.523 138.011 212.387 138.011 210.744C138.011 209.123 138.369 207.997 139.083 207.368ZM139.947 210.744C139.947 211.8 140.139 212.552 140.523 213C140.907 213.437 141.574 213.656 142.523 213.656C143.473 213.656 144.139 213.437 144.523 213C144.907 212.552 145.099 211.8 145.099 210.744C145.099 209.699 144.907 208.957 144.523 208.52C144.139 208.083 143.473 207.864 142.523 207.864C141.574 207.864 140.907 208.083 140.523 208.52C140.139 208.957 139.947 209.699 139.947 210.744ZM148.252 215V207.96C148.252 207 148.732 206.52 149.692 206.52H152.668C153.713 206.52 154.524 206.739 155.1 207.176C155.676 207.613 155.964 208.36 155.964 209.416V215H154.092V209.912C154.092 209.251 153.953 208.76 153.676 208.44C153.398 208.12 152.945 207.96 152.316 207.96H150.604C150.284 207.96 150.124 208.12 150.124 208.44V215H148.252Z" fill="black"/>
<path d="M84.072 256H81.96V246.48C81.96 245.36 82.504 244.8 83.592 244.8H89.24C90.2427 244.8 90.9573 245.099 91.384 245.696C91.8213 246.283 92.04 247.163 92.04 248.336C92.04 250.832 91.176 252.08 89.448 252.08H88.328V252.16L92.264 256H89.544L85.928 252.368C85.576 251.995 85.4 251.68 85.4 251.424V251.168C85.4 250.933 85.48 250.747 85.64 250.608C85.8107 250.469 86.0453 250.4 86.344 250.4H88.52C89.064 250.4 89.4213 250.235 89.592 249.904C89.7733 249.573 89.864 249.051 89.864 248.336C89.864 247.653 89.7573 247.173 89.544 246.896C89.3413 246.619 88.92 246.48 88.28 246.48H84.872C84.552 246.48 84.3387 246.533 84.232 246.64C84.1253 246.747 84.072 246.96 84.072 247.28V256ZM100.65 256H95.9456C95.2843 256 94.735 255.909 94.2976 255.728C93.871 255.547 93.5456 255.264 93.3216 254.88C93.0976 254.485 92.943 254.048 92.8576 253.568C92.783 253.088 92.7456 252.48 92.7456 251.744C92.7456 250.101 93.055 248.971 93.6736 248.352C94.303 247.733 95.359 247.424 96.8416 247.424C98.1643 247.424 99.1723 247.669 99.8656 248.16C100.57 248.64 100.922 249.515 100.922 250.784C100.922 251.851 100.484 252.384 99.6096 252.384H94.6816C94.6816 253.12 94.799 253.669 95.0336 254.032C95.279 254.384 95.7696 254.56 96.5056 254.56H100.65V256ZM94.6816 250.944H98.5696C98.847 250.944 98.9856 250.779 98.9856 250.448C98.9856 249.925 98.7776 249.531 98.3616 249.264C97.9563 248.997 97.4496 248.864 96.8416 248.864C96.0523 248.864 95.4923 249.029 95.1616 249.36C94.8416 249.68 94.6816 250.208 94.6816 250.944ZM109.758 244.8V254.56C109.758 255.52 109.278 256 108.318 256H105.358C104.078 256 103.177 255.637 102.654 254.912C102.142 254.187 101.886 253.131 101.886 251.744C101.886 250.357 102.142 249.307 102.654 248.592C103.166 247.877 104.068 247.52 105.358 247.52H107.886V244.8H109.758ZM107.886 248.96H105.822C105.385 248.96 105.028 249.024 104.75 249.152C104.473 249.28 104.27 249.483 104.142 249.76C104.014 250.037 103.929 250.325 103.886 250.624C103.844 250.912 103.822 251.285 103.822 251.744C103.822 252.203 103.844 252.581 103.886 252.88C103.929 253.168 104.014 253.456 104.142 253.744C104.27 254.021 104.473 254.229 104.75 254.368C105.028 254.496 105.385 254.56 105.822 254.56H107.406C107.726 254.56 107.886 254.4 107.886 254.08V248.96ZM121.45 256H116.826C115.738 256 115.194 255.44 115.194 254.32V246.48C115.194 245.36 115.738 244.8 116.826 244.8H121.162C121.898 244.8 122.538 244.912 123.082 245.136C123.626 245.349 124.053 245.632 124.362 245.984C124.682 246.325 124.933 246.752 125.114 247.264C125.306 247.776 125.429 248.277 125.482 248.768C125.546 249.248 125.578 249.792 125.578 250.4C125.578 250.997 125.546 251.541 125.482 252.032C125.429 252.523 125.312 253.024 125.13 253.536C124.96 254.048 124.725 254.48 124.426 254.832C124.138 255.173 123.738 255.456 123.226 255.68C122.725 255.893 122.133 256 121.45 256ZM120.426 246.48H118.106C117.786 246.48 117.573 246.533 117.466 246.64C117.36 246.747 117.306 246.96 117.306 247.28V253.52C117.306 253.84 117.36 254.053 117.466 254.16C117.573 254.267 117.786 254.32 118.106 254.32H120.426C121.045 254.32 121.557 254.229 121.962 254.048C122.368 253.856 122.672 253.568 122.874 253.184C123.077 252.8 123.216 252.395 123.29 251.968C123.365 251.541 123.402 251.019 123.402 250.4C123.402 249.781 123.365 249.259 123.29 248.832C123.216 248.405 123.077 248 122.874 247.616C122.672 247.232 122.368 246.949 121.962 246.768C121.557 246.576 121.045 246.48 120.426 246.48ZM134.603 256H129.899C129.237 256 128.688 255.909 128.251 255.728C127.824 255.547 127.499 255.264 127.275 254.88C127.051 254.485 126.896 254.048 126.811 253.568C126.736 253.088 126.699 252.48 126.699 251.744C126.699 250.101 127.008 248.971 127.627 248.352C128.256 247.733 129.312 247.424 130.795 247.424C132.117 247.424 133.125 247.669 133.819 248.16C134.523 248.64 134.875 249.515 134.875 250.784C134.875 251.851 134.437 252.384 133.563 252.384H128.635C128.635 253.12 128.752 253.669 128.987 254.032C129.232 254.384 129.723 254.56 130.459 254.56H134.603V256ZM128.635 250.944H132.523C132.8 250.944 132.939 250.779 132.939 250.448C132.939 249.925 132.731 249.531 132.315 249.264C131.909 248.997 131.403 248.864 130.795 248.864C130.005 248.864 129.445 249.029 129.115 249.36C128.795 249.68 128.635 250.208 128.635 250.944ZM143.743 256H139.039C138.378 256 137.829 255.909 137.391 255.728C136.965 255.547 136.639 255.264 136.415 254.88C136.191 254.485 136.037 254.048 135.951 253.568C135.877 253.088 135.839 252.48 135.839 251.744C135.839 250.101 136.149 248.971 136.767 248.352C137.397 247.733 138.453 247.424 139.935 247.424C141.258 247.424 142.266 247.669 142.959 248.16C143.663 248.64 144.015 249.515 144.015 250.784C144.015 251.851 143.578 252.384 142.703 252.384H137.775C137.775 253.12 137.893 253.669 138.127 254.032C138.373 254.384 138.863 254.56 139.599 254.56H143.743V256ZM137.775 250.944H141.663C141.941 250.944 142.079 250.779 142.079 250.448C142.079 249.925 141.871 249.531 141.455 249.264C141.05 248.997 140.543 248.864 139.935 248.864C139.146 248.864 138.586 249.029 138.255 249.36C137.935 249.68 137.775 250.208 137.775 250.944ZM145.236 256V250.72C145.236 249.6 145.519 248.789 146.084 248.288C146.649 247.776 147.508 247.52 148.66 247.52H149.924V248.96H149.14C148.404 248.96 147.881 249.141 147.572 249.504C147.263 249.867 147.108 250.437 147.108 251.216V256H145.236Z" fill="black"/>
<path d="M79.064 303H74.392C73.464 303 72.68 302.867 72.04 302.6C71.4 302.323 70.9093 301.923 70.568 301.4C70.2267 300.867 69.9867 300.28 69.848 299.64C69.7093 299 69.64 298.253 69.64 297.4C69.64 296.547 69.7093 295.8 69.848 295.16C69.9867 294.52 70.2267 293.939 70.568 293.416C70.9093 292.883 71.4 292.483 72.04 292.216C72.68 291.939 73.464 291.8 74.392 291.8H78.888V293.48H75.384C74.0187 293.48 73.08 293.757 72.568 294.312C72.0667 294.856 71.816 295.885 71.816 297.4C71.816 298.915 72.0667 299.949 72.568 300.504C73.08 301.048 74.0187 301.32 75.384 301.32H79.064V303ZM80.6509 294.52H85.4669C86.2455 294.52 86.8375 294.749 87.2429 295.208C87.6482 295.667 87.8509 296.269 87.8509 297.016V301.56C87.8509 302.52 87.3709 303 86.4109 303H82.1389C80.7309 303 80.0269 302.12 80.0269 300.36C80.0269 299.539 80.2029 298.893 80.5549 298.424C80.9069 297.955 81.4349 297.72 82.1389 297.72H85.9789V297.176C85.9789 296.365 85.5842 295.96 84.7949 295.96H80.6509V294.52ZM85.9789 299.16H82.8589C82.2615 299.16 81.9629 299.56 81.9629 300.36C81.9629 301.16 82.2615 301.56 82.8589 301.56H85.4989C85.8189 301.56 85.9789 301.4 85.9789 301.08V299.16ZM89.3298 303V291.8H91.2018V303H89.3298ZM98.6095 303H95.8895C94.6095 303 93.7082 302.637 93.1855 301.912C92.6735 301.187 92.4175 300.131 92.4175 298.744C92.4175 297.357 92.6735 296.307 93.1855 295.592C93.6975 294.877 94.5988 294.52 95.8895 294.52H99.0415C100.002 294.52 100.482 295 100.482 295.96V302.344C100.482 303.549 100.188 304.424 99.6015 304.968C99.0255 305.523 98.0975 305.8 96.8175 305.8H93.0095V304.36H96.8175C97.8842 304.36 98.4815 303.907 98.6095 303ZM98.1295 295.96H96.3535C95.9162 295.96 95.5588 296.024 95.2815 296.152C95.0042 296.28 94.8015 296.483 94.6735 296.76C94.5455 297.037 94.4602 297.325 94.4175 297.624C94.3748 297.912 94.3535 298.285 94.3535 298.744C94.3535 299.203 94.3748 299.581 94.4175 299.88C94.4602 300.168 94.5455 300.456 94.6735 300.744C94.8015 301.021 95.0042 301.229 95.2815 301.368C95.5588 301.496 95.9162 301.56 96.3535 301.56H98.6095V296.44C98.6095 296.12 98.4495 295.96 98.1295 295.96ZM102.323 294.52H107.139C107.917 294.52 108.509 294.749 108.915 295.208C109.32 295.667 109.523 296.269 109.523 297.016V301.56C109.523 302.52 109.043 303 108.083 303H103.811C102.403 303 101.699 302.12 101.699 300.36C101.699 299.539 101.875 298.893 102.227 298.424C102.579 297.955 103.107 297.72 103.811 297.72H107.651V297.176C107.651 296.365 107.256 295.96 106.467 295.96H102.323V294.52ZM107.651 299.16H104.531C103.933 299.16 103.635 299.56 103.635 300.36C103.635 301.16 103.933 301.56 104.531 301.56H107.171C107.491 301.56 107.651 301.4 107.651 301.08V299.16ZM111.002 303V297.72C111.002 296.6 111.284 295.789 111.85 295.288C112.415 294.776 113.274 294.52 114.426 294.52H115.69V295.96H114.906C114.17 295.96 113.647 296.141 113.338 296.504C113.028 296.867 112.874 297.437 112.874 298.216V303H111.002ZM125.608 294.52L120.552 305.736H118.648L119.944 302.968L116.168 294.52H118.104L120.824 301.032L123.704 294.52H125.608Z" fill="black"/>
<path d="M77 332.446L107 315.303L137 332.446V357.554L107 374.697L77 357.554V332.446Z" fill="white" stroke="url(#paint0_linear_7810_18060)" stroke-width="4"/>
<path d="M100.396 351H92.1517V349.812C93.3997 348.828 94.3657 348.048 95.0497 347.472C95.7457 346.884 96.4117 346.266 97.0477 345.618C97.6957 344.958 98.1517 344.376 98.4157 343.872C98.6797 343.356 98.8117 342.846 98.8117 342.342C98.8117 341.622 98.5657 341.076 98.0737 340.704C97.5817 340.332 96.9937 340.146 96.3097 340.146C94.9297 340.146 93.8437 340.65 93.0517 341.658L92.1337 340.704C92.5897 340.104 93.1837 339.642 93.9157 339.318C94.6597 338.982 95.4577 338.814 96.3097 338.814C97.4017 338.814 98.3437 339.12 99.1357 339.732C99.9397 340.344 100.342 341.214 100.342 342.342C100.342 343.458 99.8617 344.574 98.9017 345.69C97.9417 346.794 96.4777 348.12 94.5097 349.668H100.396V351ZM109.538 351H108.044V347.958H102.338V346.716L107.486 338.994H109.538V346.644H111.23V347.958H109.538V351ZM108.044 346.644V340.38L103.832 346.644H108.044ZM117.307 351.216C116.515 351.216 115.813 351.036 115.201 350.676C114.601 350.304 114.121 349.812 113.761 349.2C113.413 348.588 113.149 347.928 112.969 347.22C112.801 346.512 112.717 345.774 112.717 345.006C112.717 344.238 112.801 343.5 112.969 342.792C113.149 342.084 113.413 341.43 113.761 340.83C114.121 340.218 114.601 339.732 115.201 339.372C115.813 339 116.515 338.814 117.307 338.814C118.087 338.814 118.783 339 119.395 339.372C120.007 339.732 120.487 340.218 120.835 340.83C121.195 341.43 121.459 342.084 121.627 342.792C121.807 343.5 121.897 344.238 121.897 345.006C121.897 345.774 121.807 346.512 121.627 347.22C121.459 347.928 121.195 348.588 120.835 349.2C120.487 349.812 120.007 350.304 119.395 350.676C118.783 351.036 118.087 351.216 117.307 351.216ZM115.507 349.146C115.987 349.638 116.587 349.884 117.307 349.884C118.027 349.884 118.627 349.638 119.107 349.146C119.587 348.642 119.917 348.042 120.097 347.346C120.277 346.65 120.367 345.87 120.367 345.006C120.367 344.142 120.277 343.362 120.097 342.666C119.917 341.97 119.587 341.376 119.107 340.884C118.627 340.392 118.027 340.146 117.307 340.146C116.587 340.146 115.987 340.392 115.507 340.884C115.027 341.376 114.697 341.97 114.517 342.666C114.337 343.362 114.247 344.142 114.247 345.006C114.247 345.87 114.337 346.65 114.517 347.346C114.697 348.042 115.027 348.642 115.507 349.146Z" fill="black"/>
<path d="M15 90.4459L45 73.3035L75 90.4459V115.554L45 132.697L15 115.554V90.4459Z" fill="white" stroke="url(#paint1_linear_7810_18060)" stroke-width="4"/>
<path d="M34.9864 109.216C34.1824 109.216 33.4744 109.048 32.8624 108.712C32.2504 108.376 31.7644 107.92 31.4044 107.344C31.0564 106.756 30.7924 106.102 30.6124 105.382C30.4444 104.65 30.3604 103.864 30.3604 103.024C30.3604 101.896 30.5284 100.876 30.8644 99.964C31.2004 99.052 31.7404 98.302 32.4844 97.714C33.2404 97.114 34.1584 96.814 35.2384 96.814C36.6184 96.814 37.7284 97.294 38.5684 98.254L37.8124 99.37C37.1164 98.554 36.2584 98.146 35.2384 98.146C34.4944 98.146 33.8584 98.38 33.3304 98.848C32.8144 99.316 32.4364 99.898 32.1964 100.594C31.9684 101.278 31.8544 102.034 31.8544 102.862C31.8544 103.066 31.8604 103.222 31.8724 103.33C32.1724 102.85 32.6344 102.418 33.2584 102.034C33.8944 101.65 34.5664 101.458 35.2744 101.458C36.4144 101.458 37.3504 101.794 38.0824 102.466C38.8264 103.126 39.1984 104.068 39.1984 105.292C39.1984 106.384 38.8144 107.314 38.0464 108.082C37.2784 108.838 36.2584 109.216 34.9864 109.216ZM34.9324 107.884C35.7964 107.884 36.4684 107.626 36.9484 107.11C37.4404 106.582 37.6864 105.994 37.6864 105.346C37.6864 104.506 37.4284 103.864 36.9124 103.42C36.3964 102.976 35.7304 102.754 34.9144 102.754C34.3264 102.754 33.7624 102.922 33.2224 103.258C32.6824 103.582 32.2444 104.014 31.9084 104.554C31.9924 105.442 32.2804 106.222 32.7724 106.894C33.2644 107.554 33.9844 107.884 34.9324 107.884ZM48.3751 108.334C47.5591 108.922 46.5391 109.216 45.3151 109.216C44.0911 109.216 43.0651 108.922 42.2371 108.334C41.4211 107.746 41.0131 106.954 41.0131 105.958C41.0131 105.202 41.2831 104.548 41.8231 103.996C42.3751 103.444 43.0591 103.048 43.8751 102.808C43.1071 102.592 42.4711 102.244 41.9671 101.764C41.4631 101.272 41.2111 100.66 41.2111 99.928C41.2111 98.92 41.6191 98.152 42.4351 97.624C43.2511 97.084 44.2111 96.814 45.3151 96.814C46.4191 96.814 47.3791 97.084 48.1951 97.624C49.0231 98.152 49.4371 98.92 49.4371 99.928C49.4371 100.66 49.1851 101.272 48.6811 101.764C48.1771 102.244 47.5351 102.592 46.7551 102.808C47.5711 103.048 48.2491 103.444 48.7891 103.996C49.3411 104.548 49.6171 105.202 49.6171 105.958C49.6171 106.942 49.2031 107.734 48.3751 108.334ZM45.3151 102.196C45.5551 102.16 45.7951 102.1 46.0351 102.016C46.2871 101.932 46.5691 101.818 46.8811 101.674C47.1931 101.518 47.4451 101.308 47.6371 101.044C47.8291 100.768 47.9251 100.462 47.9251 100.126C47.9251 99.526 47.6731 99.046 47.1691 98.686C46.6771 98.326 46.0591 98.146 45.3151 98.146C44.5591 98.146 43.9351 98.326 43.4431 98.686C42.9511 99.046 42.7051 99.526 42.7051 100.126C42.7051 100.462 42.8011 100.768 42.9931 101.044C43.1851 101.308 43.4371 101.518 43.7491 101.674C44.0611 101.818 44.3371 101.932 44.5771 102.016C44.8291 102.088 45.0751 102.148 45.3151 102.196ZM45.3151 107.884C46.0831 107.884 46.7371 107.692 47.2771 107.308C47.8291 106.924 48.1051 106.42 48.1051 105.796C48.1051 105.316 47.9131 104.896 47.5291 104.536C47.1571 104.164 46.7731 103.906 46.3771 103.762C45.9931 103.606 45.6391 103.51 45.3151 103.474C44.9911 103.51 44.6311 103.606 44.2351 103.762C43.8511 103.906 43.4671 104.164 43.0831 104.536C42.6991 104.896 42.5071 105.316 42.5071 105.796C42.5071 106.42 42.7771 106.924 43.3171 107.308C43.8691 107.692 44.5351 107.884 45.3151 107.884ZM56.0441 109.216C55.2521 109.216 54.5501 109.036 53.9381 108.676C53.3381 108.304 52.8581 107.812 52.4981 107.2C52.1501 106.588 51.8861 105.928 51.7061 105.22C51.5381 104.512 51.4541 103.774 51.4541 103.006C51.4541 102.238 51.5381 101.5 51.7061 100.792C51.8861 100.084 52.1501 99.43 52.4981 98.83C52.8581 98.218 53.3381 97.732 53.9381 97.372C54.5501 97 55.2521 96.814 56.0441 96.814C56.8241 96.814 57.5201 97 58.1321 97.372C58.7441 97.732 59.2241 98.218 59.5721 98.83C59.9321 99.43 60.1961 100.084 60.3641 100.792C60.5441 101.5 60.6341 102.238 60.6341 103.006C60.6341 103.774 60.5441 104.512 60.3641 105.22C60.1961 105.928 59.9321 106.588 59.5721 107.2C59.2241 107.812 58.7441 108.304 58.1321 108.676C57.5201 109.036 56.8241 109.216 56.0441 109.216ZM54.2441 107.146C54.7241 107.638 55.3241 107.884 56.0441 107.884C56.7641 107.884 57.3641 107.638 57.8441 107.146C58.3241 106.642 58.6541 106.042 58.8341 105.346C59.0141 104.65 59.1041 103.87 59.1041 103.006C59.1041 102.142 59.0141 101.362 58.8341 100.666C58.6541 99.97 58.3241 99.376 57.8441 98.884C57.3641 98.392 56.7641 98.146 56.0441 98.146C55.3241 98.146 54.7241 98.392 54.2441 98.884C53.7641 99.376 53.4341 99.97 53.2541 100.666C53.0741 101.362 52.9841 102.142 52.9841 103.006C52.9841 103.87 53.0741 104.65 53.2541 105.346C53.4341 106.042 53.7641 106.642 54.2441 107.146Z" fill="black"/>
<path d="M137 291.446L167 274.303L197 291.446V316.554L167 333.697L137 316.554V291.446Z" fill="white" stroke="url(#paint2_linear_7810_18060)" stroke-width="4"/>
<path d="M160.299 310H152.055V308.812C153.303 307.828 154.269 307.048 154.953 306.472C155.649 305.884 156.315 305.266 156.951 304.618C157.599 303.958 158.055 303.376 158.319 302.872C158.583 302.356 158.715 301.846 158.715 301.342C158.715 300.622 158.469 300.076 157.977 299.704C157.485 299.332 156.897 299.146 156.213 299.146C154.833 299.146 153.747 299.65 152.955 300.658L152.037 299.704C152.493 299.104 153.087 298.642 153.819 298.318C154.563 297.982 155.361 297.814 156.213 297.814C157.305 297.814 158.247 298.12 159.039 298.732C159.843 299.344 160.245 300.214 160.245 301.342C160.245 302.458 159.765 303.574 158.805 304.69C157.845 305.794 156.381 307.12 154.413 308.668H160.299V310ZM167.209 310.216C166.405 310.216 165.697 310.048 165.085 309.712C164.473 309.376 163.987 308.92 163.627 308.344C163.279 307.756 163.015 307.102 162.835 306.382C162.667 305.65 162.583 304.864 162.583 304.024C162.583 302.896 162.751 301.876 163.087 300.964C163.423 300.052 163.963 299.302 164.707 298.714C165.463 298.114 166.381 297.814 167.461 297.814C168.841 297.814 169.951 298.294 170.791 299.254L170.035 300.37C169.339 299.554 168.481 299.146 167.461 299.146C166.717 299.146 166.081 299.38 165.553 299.848C165.037 300.316 164.659 300.898 164.419 301.594C164.191 302.278 164.077 303.034 164.077 303.862C164.077 304.066 164.083 304.222 164.095 304.33C164.395 303.85 164.857 303.418 165.481 303.034C166.117 302.65 166.789 302.458 167.497 302.458C168.637 302.458 169.573 302.794 170.305 303.466C171.049 304.126 171.421 305.068 171.421 306.292C171.421 307.384 171.037 308.314 170.269 309.082C169.501 309.838 168.481 310.216 167.209 310.216ZM167.155 308.884C168.019 308.884 168.691 308.626 169.171 308.11C169.663 307.582 169.909 306.994 169.909 306.346C169.909 305.506 169.651 304.864 169.135 304.42C168.619 303.976 167.953 303.754 167.137 303.754C166.549 303.754 165.985 303.922 165.445 304.258C164.905 304.582 164.467 305.014 164.131 305.554C164.215 306.442 164.503 307.222 164.995 307.894C165.487 308.554 166.207 308.884 167.155 308.884ZM177.718 310.216C175.87 310.216 174.46 309.574 173.488 308.29L174.406 307.3C175.234 308.356 176.338 308.884 177.718 308.884C178.534 308.884 179.2 308.638 179.716 308.146C180.232 307.654 180.49 307.042 180.49 306.31C180.49 305.53 180.232 304.906 179.716 304.438C179.212 303.958 178.552 303.718 177.736 303.718C176.656 303.718 175.732 304.096 174.964 304.852L173.866 304.474V297.994H181.21V299.326H175.36V303.502C176.08 302.782 177.016 302.422 178.168 302.422C179.224 302.422 180.124 302.77 180.868 303.466C181.612 304.15 181.984 305.08 181.984 306.256C181.984 307.456 181.582 308.416 180.778 309.136C179.974 309.856 178.954 310.216 177.718 310.216Z" fill="black"/>
<path d="M163 89.4459L193 72.3035L223 89.4459V114.554L193 131.697L163 114.554V89.4459Z" fill="white" stroke="url(#paint3_linear_7810_18060)" stroke-width="4"/>
<path d="M184.812 108H183.318V97.974L181.392 100.008L180.492 99.09L183.498 95.994H184.812V108ZM193.99 108H192.496V104.958H186.79V103.716L191.938 95.994H193.99V103.644H195.682V104.958H193.99V108ZM192.496 103.644V97.38L188.284 103.644H192.496ZM201.795 108.216C200.991 108.216 200.283 108.048 199.671 107.712C199.059 107.376 198.573 106.92 198.213 106.344C197.865 105.756 197.601 105.102 197.421 104.382C197.253 103.65 197.169 102.864 197.169 102.024C197.169 100.896 197.337 99.876 197.673 98.964C198.009 98.052 198.549 97.302 199.293 96.714C200.049 96.114 200.967 95.814 202.047 95.814C203.427 95.814 204.537 96.294 205.377 97.254L204.621 98.37C203.925 97.554 203.067 97.146 202.047 97.146C201.303 97.146 200.667 97.38 200.139 97.848C199.623 98.316 199.245 98.898 199.005 99.594C198.777 100.278 198.663 101.034 198.663 101.862C198.663 102.066 198.669 102.222 198.681 102.33C198.981 101.85 199.443 101.418 200.067 101.034C200.703 100.65 201.375 100.458 202.083 100.458C203.223 100.458 204.159 100.794 204.891 101.466C205.635 102.126 206.007 103.068 206.007 104.292C206.007 105.384 205.623 106.314 204.855 107.082C204.087 107.838 203.067 108.216 201.795 108.216ZM201.741 106.884C202.605 106.884 203.277 106.626 203.757 106.11C204.249 105.582 204.495 104.994 204.495 104.346C204.495 103.506 204.237 102.864 203.721 102.42C203.205 101.976 202.539 101.754 201.723 101.754C201.135 101.754 200.571 101.922 200.031 102.258C199.491 102.582 199.053 103.014 198.717 103.554C198.801 104.442 199.089 105.222 199.581 105.894C200.073 106.554 200.793 106.884 201.741 106.884Z" fill="black"/>
<path d="M155 223.017L193 201.303L231 223.017V254.983L193 276.697L155 254.983V223.017Z" fill="white" stroke="url(#paint4_linear_7810_18060)" stroke-width="4"/>
<path d="M182.197 245.198C180.817 245.198 179.707 244.718 178.867 243.758L179.623 242.642C180.319 243.458 181.177 243.866 182.197 243.866C182.965 243.866 183.613 243.626 184.141 243.146C184.669 242.666 185.041 242.084 185.257 241.4C185.473 240.716 185.581 239.972 185.581 239.168C185.581 238.952 185.575 238.79 185.563 238.682C185.263 239.162 184.801 239.594 184.177 239.978C183.553 240.362 182.887 240.554 182.179 240.554C181.039 240.554 180.097 240.224 179.353 239.564C178.609 238.892 178.237 237.944 178.237 236.72C178.237 235.64 178.621 234.716 179.389 233.948C180.157 233.18 181.171 232.796 182.431 232.796C183.247 232.796 183.961 232.964 184.573 233.3C185.185 233.636 185.665 234.098 186.013 234.686C186.373 235.274 186.637 235.928 186.805 236.648C186.985 237.368 187.075 238.154 187.075 239.006C187.075 240.134 186.907 241.154 186.571 242.066C186.235 242.966 185.689 243.716 184.933 244.316C184.189 244.904 183.277 245.198 182.197 245.198ZM182.521 239.258C183.109 239.258 183.673 239.096 184.213 238.772C184.765 238.448 185.197 238.016 185.509 237.476C185.437 236.588 185.155 235.808 184.663 235.136C184.171 234.464 183.451 234.128 182.503 234.128C181.651 234.128 180.979 234.392 180.487 234.92C179.995 235.448 179.749 236.03 179.749 236.666C179.749 237.506 180.007 238.148 180.523 238.592C181.039 239.036 181.705 239.258 182.521 239.258ZM192.832 245.198C191.452 245.198 190.342 244.718 189.502 243.758L190.258 242.642C190.954 243.458 191.812 243.866 192.832 243.866C193.6 243.866 194.248 243.626 194.776 243.146C195.304 242.666 195.676 242.084 195.892 241.4C196.108 240.716 196.216 239.972 196.216 239.168C196.216 238.952 196.21 238.79 196.198 238.682C195.898 239.162 195.436 239.594 194.812 239.978C194.188 240.362 193.522 240.554 192.814 240.554C191.674 240.554 190.732 240.224 189.988 239.564C189.244 238.892 188.872 237.944 188.872 236.72C188.872 235.64 189.256 234.716 190.024 233.948C190.792 233.18 191.806 232.796 193.066 232.796C193.882 232.796 194.596 232.964 195.208 233.3C195.82 233.636 196.3 234.098 196.648 234.686C197.008 235.274 197.272 235.928 197.44 236.648C197.62 237.368 197.71 238.154 197.71 239.006C197.71 240.134 197.542 241.154 197.206 242.066C196.87 242.966 196.324 243.716 195.568 244.316C194.824 244.904 193.912 245.198 192.832 245.198ZM193.156 239.258C193.744 239.258 194.308 239.096 194.848 238.772C195.4 238.448 195.832 238.016 196.144 237.476C196.072 236.588 195.79 235.808 195.298 235.136C194.806 234.464 194.086 234.128 193.138 234.128C192.286 234.128 191.614 234.392 191.122 234.92C190.63 235.448 190.384 236.03 190.384 236.666C190.384 237.506 190.642 238.148 191.158 238.592C191.674 239.036 192.34 239.258 193.156 239.258ZM203.413 245.216C202.453 245.216 201.601 245.03 200.857 244.658C200.113 244.286 199.543 243.812 199.147 243.236L200.029 242.3C200.389 242.78 200.863 243.164 201.451 243.452C202.039 243.74 202.681 243.884 203.377 243.884C204.253 243.884 204.937 243.686 205.429 243.29C205.933 242.882 206.185 242.33 206.185 241.634C206.185 240.914 205.915 240.38 205.375 240.032C204.847 239.684 204.121 239.51 203.197 239.51C202.489 239.51 202.075 239.516 201.955 239.528V238.16C202.087 238.172 202.501 238.178 203.197 238.178C204.013 238.178 204.679 238.016 205.195 237.692C205.723 237.356 205.987 236.858 205.987 236.198C205.987 235.562 205.729 235.064 205.213 234.704C204.709 234.332 204.073 234.146 203.305 234.146C202.093 234.146 201.037 234.632 200.137 235.604L199.309 234.668C200.329 233.432 201.697 232.814 203.413 232.814C204.601 232.814 205.573 233.102 206.329 233.678C207.097 234.242 207.481 235.022 207.481 236.018C207.481 236.81 207.217 237.446 206.689 237.926C206.161 238.394 205.561 238.688 204.889 238.808C205.549 238.868 206.173 239.156 206.761 239.672C207.361 240.188 207.661 240.884 207.661 241.76C207.661 242.78 207.277 243.614 206.509 244.262C205.741 244.898 204.709 245.216 203.413 245.216Z" fill="black"/>
<path d="M2 246.017L40 224.303L78 246.017V277.983L40 299.697L2 277.983V246.017Z" fill="white" stroke="url(#paint5_linear_7810_18060)" stroke-width="4"/>
<path d="M32.7326 267.334C31.9166 267.922 30.8966 268.216 29.6726 268.216C28.4486 268.216 27.4226 267.922 26.5946 267.334C25.7786 266.746 25.3706 265.954 25.3706 264.958C25.3706 264.202 25.6406 263.548 26.1806 262.996C26.7326 262.444 27.4166 262.048 28.2326 261.808C27.4646 261.592 26.8286 261.244 26.3246 260.764C25.8206 260.272 25.5686 259.66 25.5686 258.928C25.5686 257.92 25.9766 257.152 26.7926 256.624C27.6086 256.084 28.5686 255.814 29.6726 255.814C30.7766 255.814 31.7366 256.084 32.5526 256.624C33.3806 257.152 33.7946 257.92 33.7946 258.928C33.7946 259.66 33.5426 260.272 33.0386 260.764C32.5346 261.244 31.8926 261.592 31.1126 261.808C31.9286 262.048 32.6066 262.444 33.1466 262.996C33.6986 263.548 33.9746 264.202 33.9746 264.958C33.9746 265.942 33.5606 266.734 32.7326 267.334ZM29.6726 261.196C29.9126 261.16 30.1526 261.1 30.3926 261.016C30.6446 260.932 30.9266 260.818 31.2386 260.674C31.5506 260.518 31.8026 260.308 31.9946 260.044C32.1866 259.768 32.2826 259.462 32.2826 259.126C32.2826 258.526 32.0306 258.046 31.5266 257.686C31.0346 257.326 30.4166 257.146 29.6726 257.146C28.9166 257.146 28.2926 257.326 27.8006 257.686C27.3086 258.046 27.0626 258.526 27.0626 259.126C27.0626 259.462 27.1586 259.768 27.3506 260.044C27.5426 260.308 27.7946 260.518 28.1066 260.674C28.4186 260.818 28.6946 260.932 28.9346 261.016C29.1866 261.088 29.4326 261.148 29.6726 261.196ZM29.6726 266.884C30.4406 266.884 31.0946 266.692 31.6346 266.308C32.1866 265.924 32.4626 265.42 32.4626 264.796C32.4626 264.316 32.2706 263.896 31.8866 263.536C31.5146 263.164 31.1306 262.906 30.7346 262.762C30.3506 262.606 29.9966 262.51 29.6726 262.474C29.3486 262.51 28.9886 262.606 28.5926 262.762C28.2086 262.906 27.8246 263.164 27.4406 263.536C27.0566 263.896 26.8646 264.316 26.8646 264.796C26.8646 265.42 27.1346 265.924 27.6746 266.308C28.2266 266.692 28.8926 266.884 29.6726 266.884ZM42.6696 268H41.1756V264.958H35.4696V263.716L40.6176 255.994H42.6696V263.644H44.3616V264.958H42.6696V268ZM41.1756 263.644V257.38L36.9636 263.644H41.1756ZM50.4747 268.216C49.6707 268.216 48.9627 268.048 48.3507 267.712C47.7387 267.376 47.2527 266.92 46.8927 266.344C46.5447 265.756 46.2807 265.102 46.1007 264.382C45.9327 263.65 45.8487 262.864 45.8487 262.024C45.8487 260.896 46.0167 259.876 46.3527 258.964C46.6887 258.052 47.2287 257.302 47.9727 256.714C48.7287 256.114 49.6467 255.814 50.7267 255.814C52.1067 255.814 53.2167 256.294 54.0567 257.254L53.3007 258.37C52.6047 257.554 51.7467 257.146 50.7267 257.146C49.9827 257.146 49.3467 257.38 48.8187 257.848C48.3027 258.316 47.9247 258.898 47.6847 259.594C47.4567 260.278 47.3427 261.034 47.3427 261.862C47.3427 262.066 47.3487 262.222 47.3607 262.33C47.6607 261.85 48.1227 261.418 48.7467 261.034C49.3827 260.65 50.0547 260.458 50.7627 260.458C51.9027 260.458 52.8387 260.794 53.5707 261.466C54.3147 262.126 54.6867 263.068 54.6867 264.292C54.6867 265.384 54.3027 266.314 53.5347 267.082C52.7667 267.838 51.7467 268.216 50.4747 268.216ZM50.4207 266.884C51.2847 266.884 51.9567 266.626 52.4367 266.11C52.9287 265.582 53.1747 264.994 53.1747 264.346C53.1747 263.506 52.9167 262.864 52.4007 262.42C51.8847 261.976 51.2187 261.754 50.4027 261.754C49.8147 261.754 49.2507 261.922 48.7107 262.258C48.1707 262.582 47.7327 263.014 47.3967 263.554C47.4807 264.442 47.7687 265.222 48.2607 265.894C48.7527 266.554 49.4727 266.884 50.4207 266.884Z" fill="black"/>
<path d="M149 19.4459L179 2.30349L209 19.4459V44.5541L179 61.6965L149 44.5541V19.4459Z" fill="white" stroke="url(#paint6_linear_7810_18060)" stroke-width="4"/>
<path d="M171.835 38H170.341V34.958H164.635V33.716L169.783 25.994H171.835V33.644H173.527V34.958H171.835V38ZM170.341 33.644V27.38L166.129 33.644H170.341ZM177.93 38H176.274L181.116 27.326H174.654V25.994H182.844V27.02L177.93 38ZM192.575 38H184.331V36.812C185.579 35.828 186.545 35.048 187.229 34.472C187.925 33.884 188.591 33.266 189.227 32.618C189.875 31.958 190.331 31.376 190.595 30.872C190.859 30.356 190.991 29.846 190.991 29.342C190.991 28.622 190.745 28.076 190.253 27.704C189.761 27.332 189.173 27.146 188.489 27.146C187.109 27.146 186.023 27.65 185.231 28.658L184.313 27.704C184.769 27.104 185.363 26.642 186.095 26.318C186.839 25.982 187.637 25.814 188.489 25.814C189.581 25.814 190.523 26.12 191.315 26.732C192.119 27.344 192.521 28.214 192.521 29.342C192.521 30.458 192.041 31.574 191.081 32.69C190.121 33.794 188.657 35.12 186.689 36.668H192.575V38Z" fill="black"/>
<path d="M139 144.446L169 127.303L199 144.446V169.554L169 186.697L139 169.554V144.446Z" fill="white" stroke="url(#paint7_linear_7810_18060)" stroke-width="4"/>
<path d="M162.79 163H161.296V152.974L159.37 155.008L158.47 154.09L161.476 150.994H162.79V163ZM168.889 163H167.395V152.974L165.469 155.008L164.569 154.09L167.575 150.994H168.889V163ZM175.709 163.216C173.861 163.216 172.451 162.574 171.479 161.29L172.397 160.3C173.225 161.356 174.329 161.884 175.709 161.884C176.525 161.884 177.191 161.638 177.707 161.146C178.223 160.654 178.481 160.042 178.481 159.31C178.481 158.53 178.223 157.906 177.707 157.438C177.203 156.958 176.543 156.718 175.727 156.718C174.647 156.718 173.723 157.096 172.955 157.852L171.857 157.474V150.994H179.201V152.326H173.351V156.502C174.071 155.782 175.007 155.422 176.159 155.422C177.215 155.422 178.115 155.77 178.859 156.466C179.603 157.15 179.975 158.08 179.975 159.256C179.975 160.456 179.573 161.416 178.769 162.136C177.965 162.856 176.945 163.216 175.709 163.216Z" fill="black"/>
<path d="M21 168.446L51 151.303L81 168.446V193.554L51 210.697L21 193.554V168.446Z" fill="white" stroke="url(#paint8_linear_7810_18060)" stroke-width="4"/>
<path d="M40.9775 187.216C40.0175 187.216 39.1655 187.03 38.4215 186.658C37.6775 186.286 37.1075 185.812 36.7115 185.236L37.5935 184.3C37.9535 184.78 38.4275 185.164 39.0155 185.452C39.6035 185.74 40.2455 185.884 40.9415 185.884C41.8175 185.884 42.5015 185.686 42.9935 185.29C43.4975 184.882 43.7495 184.33 43.7495 183.634C43.7495 182.914 43.4795 182.38 42.9395 182.032C42.4115 181.684 41.6855 181.51 40.7615 181.51C40.0535 181.51 39.6395 181.516 39.5195 181.528V180.16C39.6515 180.172 40.0655 180.178 40.7615 180.178C41.5775 180.178 42.2435 180.016 42.7595 179.692C43.2875 179.356 43.5515 178.858 43.5515 178.198C43.5515 177.562 43.2935 177.064 42.7775 176.704C42.2735 176.332 41.6375 176.146 40.8695 176.146C39.6575 176.146 38.6015 176.632 37.7015 177.604L36.8735 176.668C37.8935 175.432 39.2615 174.814 40.9775 174.814C42.1655 174.814 43.1375 175.102 43.8935 175.678C44.6615 176.242 45.0455 177.022 45.0455 178.018C45.0455 178.81 44.7815 179.446 44.2535 179.926C43.7255 180.394 43.1255 180.688 42.4535 180.808C43.1135 180.868 43.7375 181.156 44.3255 181.672C44.9255 182.188 45.2255 182.884 45.2255 183.76C45.2255 184.78 44.8415 185.614 44.0735 186.262C43.3055 186.898 42.2735 187.216 40.9775 187.216ZM55.425 187H47.181V185.812C48.429 184.828 49.395 184.048 50.079 183.472C50.775 182.884 51.441 182.266 52.077 181.618C52.725 180.958 53.181 180.376 53.445 179.872C53.709 179.356 53.841 178.846 53.841 178.342C53.841 177.622 53.595 177.076 53.103 176.704C52.611 176.332 52.023 176.146 51.339 176.146C49.959 176.146 48.873 176.65 48.081 177.658L47.163 176.704C47.619 176.104 48.213 175.642 48.945 175.318C49.689 174.982 50.487 174.814 51.339 174.814C52.431 174.814 53.373 175.12 54.165 175.732C54.969 176.344 55.371 177.214 55.371 178.342C55.371 179.458 54.891 180.574 53.931 181.69C52.971 182.794 51.507 184.12 49.539 185.668H55.425V187ZM61.579 187.216C60.619 187.216 59.767 187.03 59.023 186.658C58.279 186.286 57.709 185.812 57.313 185.236L58.195 184.3C58.555 184.78 59.029 185.164 59.617 185.452C60.205 185.74 60.847 185.884 61.543 185.884C62.419 185.884 63.103 185.686 63.595 185.29C64.099 184.882 64.351 184.33 64.351 183.634C64.351 182.914 64.081 182.38 63.541 182.032C63.013 181.684 62.287 181.51 61.363 181.51C60.655 181.51 60.241 181.516 60.121 181.528V180.16C60.253 180.172 60.667 180.178 61.363 180.178C62.179 180.178 62.845 180.016 63.361 179.692C63.889 179.356 64.153 178.858 64.153 178.198C64.153 177.562 63.895 177.064 63.379 176.704C62.875 176.332 62.239 176.146 61.471 176.146C60.259 176.146 59.203 176.632 58.303 177.604L57.475 176.668C58.495 175.432 59.863 174.814 61.579 174.814C62.767 174.814 63.739 175.102 64.495 175.678C65.263 176.242 65.647 177.022 65.647 178.018C65.647 178.81 65.383 179.446 64.855 179.926C64.327 180.394 63.727 180.688 63.055 180.808C63.715 180.868 64.339 181.156 64.927 181.672C65.527 182.188 65.827 182.884 65.827 183.76C65.827 184.78 65.443 185.614 64.675 186.262C63.907 186.898 62.875 187.216 61.579 187.216Z" fill="black"/>
<defs>
<linearGradient id="paint0_linear_7810_18060" x1="139" y1="313" x2="62.31" y2="352.128" gradientUnits="userSpaceOnUse">
<stop stop-color="#7D72A9"/>
<stop offset="1" stop-color="#9A8BDA"/>
</linearGradient>
<linearGradient id="paint1_linear_7810_18060" x1="77" y1="71" x2="0.309978" y2="110.128" gradientUnits="userSpaceOnUse">
<stop stop-color="#7D72A9"/>
<stop offset="1" stop-color="#9A8BDA"/>
</linearGradient>
<linearGradient id="paint2_linear_7810_18060" x1="199" y1="272" x2="122.31" y2="311.128" gradientUnits="userSpaceOnUse">
<stop stop-color="#7D72A9"/>
<stop offset="1" stop-color="#9A8BDA"/>
</linearGradient>
<linearGradient id="paint3_linear_7810_18060" x1="225" y1="70" x2="148.31" y2="109.128" gradientUnits="userSpaceOnUse">
<stop stop-color="#7D72A9"/>
<stop offset="1" stop-color="#9A8BDA"/>
</linearGradient>
<linearGradient id="paint4_linear_7810_18060" x1="233" y1="199" x2="137.137" y2="247.909" gradientUnits="userSpaceOnUse">
<stop stop-color="#7D72A9"/>
<stop offset="1" stop-color="#9A8BDA"/>
</linearGradient>
<linearGradient id="paint5_linear_7810_18060" x1="80" y1="222" x2="-15.8625" y2="270.909" gradientUnits="userSpaceOnUse">
<stop stop-color="#7D72A9"/>
<stop offset="1" stop-color="#9A8BDA"/>
</linearGradient>
<linearGradient id="paint6_linear_7810_18060" x1="211" y1="-4.324e-06" x2="134.31" y2="39.1276" gradientUnits="userSpaceOnUse">
<stop stop-color="#7D72A9"/>
<stop offset="1" stop-color="#9A8BDA"/>
</linearGradient>
<linearGradient id="paint7_linear_7810_18060" x1="201" y1="125" x2="124.31" y2="164.128" gradientUnits="userSpaceOnUse">
<stop stop-color="#7D72A9"/>
<stop offset="1" stop-color="#9A8BDA"/>
</linearGradient>
<linearGradient id="paint8_linear_7810_18060" x1="83" y1="149" x2="6.30998" y2="188.128" gradientUnits="userSpaceOnUse">
<stop stop-color="#7D72A9"/>
<stop offset="1" stop-color="#9A8BDA"/>
</linearGradient>
</defs>
</svg>
