<svg xmlns="http://www.w3.org/2000/svg" width="184" height="56" fill="none"><g clip-path="url(#clip0_1802_2735)"><path fill="url(#paint0_linear_1802_2735)" d="M0 16v12l6.8431-3.9652v-4.6062L28.1776 7.6l21.3345 11.8286v4.6062L56.3553 28V16L28.1776 0 16.504 6.6286V.0348L9.6609 4v6.5143L0 16Z"/><path fill="url(#paint1_linear_1802_2735)" d="M42.2655 48.2857 35.2873 44l-7.1106 4.0001L21.0661 44l-6.9782 4.2857L28.1767 56l14.0888-7.7143Z"/><path fill="url(#paint2_linear_1802_2735)" fill-rule="evenodd" d="M21.7813 19.048c-.4244.0793-.9583.3666-1.2912.6949-1.5921 1.57-.4594 4.2483 1.7925 4.2381 1.4114-.0064 2.5081-1.0883 2.5106-2.4767.0028-1.5753-1.4377-2.7501-3.0119-2.4563Zm11.3393-.0233c-.9695.16-1.8078.9087-2.0589 1.8387-.0916.3388-.0865.9785.0101 1.303.2049.6884.7135 1.2781 1.3655 1.5835 1.219.5708 2.7068.0726 3.3115-1.109.7577-1.4802-.0908-3.2369-1.7287-3.5792-.3184-.0666-.6402-.0798-.8995-.037Zm-14.2318 6.6522c.0091.0504-1.9962 5.5871-1.9962 5.5871l2.5637-1.209.5187 4.1095v4.8356h1.6826v-3.3188h1.2372v3.3188h1.6826v-4.8356l.5187-4.1095 2.5637 1.209-1.9961-5.5871H18.8888Zm12.4998.0253c0 .0121-3.7288 5.5618-3.7288 5.5618l2.9987-1.209c-.4382 2.597-.9147 5.4087-.9321 5.4922l-.0282.1341h1.4926v3.3188h1.6824v-3.3188h1.2869v3.3188h1.6825v-3.3188h.7177c.65 0 .7177-.0078.7185-.0854.0003-.0468-.4503-2.7594-.9067-5.4639l2.8042 1.132-3.5557-5.5871h-2.1159c-1.1637 0-2.1161.0114-2.1161.0253Zm11.6413.8833c-.9885.3519-1.4281 1.4515-.9409 2.3534.1928.3567.4111.5597.7898.735.2283.1053.3455.1268.6952.1268.3584 0 .4615-.0198.6971-.1341.3486-.1685.6546-.4712.8264-.8173.1133-.2276.1339-.3321.1339-.6835.0003-.347-.0211-.4598-.1307-.6904-.2762-.5813-.8175-.9314-1.4774-.9555-.2488-.0091-.4444.0126-.5934.0656Zm-1.782 8.2418v4.1728h1.6828v-2.4892h1.2866v2.4892h1.6825v-6.6038l2.4055-2.453-2.4055.7114H41.2479l-2.0716.6093 2.0716 1.1323v2.431Z" clip-rule="evenodd"/><path fill="url(#paint3_linear_1802_2735)" d="M11.2036 28.9386c-.4874-.9019-.0478-2.0016.9407-2.3534.1492-.0531.3448-.0747.5936-.0656.6598.0241 1.201.3742 1.4774.9554.1096.2307.131.3434.1308.6905-.0003.3514-.0207.4558-.1339.6835-.172.346-.4779.6487-.8265.8173-.2358.1142-.3387.1341-.6973.1341-.3497 0-.4669-.0216-.6951-.1268-.3788-.1753-.5969-.3783-.7897-.735Z"/><path fill="url(#paint4_linear_1802_2735)" d="M10.3623 39.0002V36.511h-.9625l1.3386-4.1146-2.6876-2.453 3.0916.7114H14.1846l2.7071.6093-2.2796 1.1323 1.3943 4.1146h-.9922v2.4892h-1.6826V36.511h-1.2867v2.4892h-1.6826Z"/><path fill="url(#paint5_linear_1802_2735)" d="m25.6621 25.6768 1.9962 5.5871s-2.0053-5.5367-1.9962-5.5871Z"/><path fill="#000" d="M71.3344 24.08h-2.8403V13.104h2.8403V24.08Zm8.812-2.6029c.3788.3554.9626.5331 1.7516.5331.7889 0 1.3674-.1777 1.7357-.5331.3787-.3659.5681-.9408.5681-1.7248V13.104h2.8403v6.7894c0 1.5784-.4314 2.6917-1.2942 3.3398-.8518.6481-2.1353.9722-3.8499.9722-1.7149 0-3.0035-.3241-3.866-.9722-.8521-.6481-1.2781-1.7614-1.2781-3.3398V13.104h2.8403v6.6483c0 .784.184 1.3589.5522 1.7248Zm19.9406-8.3731v9.3452c0 .4704-.1576.8834-.4732 1.2388-.3052.3449-.8205.5174-1.5464.5174-.9575 0-1.6568-.3345-2.0987-1.0035l-4.3077-6.4445c-.1159-.1777-.2159-.2666-.2999-.2666-.1262 0-.1893.1046-.1893.3136V24.08h-2.3985v-9.3767c0-.5749.1894-1.0035.5681-1.2857.3891-.2927.894-.4391 1.5148-.4391.9361 0 1.6146.3136 2.0356.9408l4.3393 6.5072c.0104.0105.0262.0418.0473.0941.0316.0418.0525.0732.0632.0941a.7939.7939 0 0 1 .0789.047c.0315.0209.0631.0314.0946.0314.1156 0 .1736-.0889.1736-.2666V13.104h2.3983Zm7.987 10.976h-4.576c-1.115 0-1.673-.5593-1.673-1.6778v-7.6048c0-1.129.558-1.6934 1.673-1.6934h4.434c.894 0 1.646.1306 2.256.392.61.2613 1.073.6481 1.389 1.1603.326.5122.552 1.0819.678 1.7091.127.6168.19 1.3589.19 2.2266 0 .8571-.063 1.5993-.19 2.2265-.126.6272-.347 1.1969-.662 1.7091-.305.5122-.752.899-1.342 1.1604-.589.2613-1.315.392-2.177.392Zm-3.408-7.9968v5.0176c0 .2926.052.4965.157.6115.116.115.326.1725.631.1725h.647c1.294 0 2.188-.2248 2.683-.6743.505-.4495.757-1.3223.757-2.6185s-.252-2.1691-.757-2.6186c-.495-.4495-1.389-.6742-2.683-.6742h-.647c-.305 0-.515.0574-.631.1724-.105.115-.157.3189-.157.6116Zm18.457-2.9792v2.1324h-5.681c-.274 0-.468.0575-.584.1725-.105.1045-.158.2927-.158.5645v1.521h6.281v2.0384H116.7v1.6777c0 .2718.053.4652.158.5802.116.1045.31.1568.584.1568h5.744V24.08h-7.653c-1.115 0-1.673-.5593-1.673-1.6778v-7.6048c0-1.129.558-1.6934 1.673-1.6934h7.59Zm1.478 10.976v-9.2826c0-1.129.557-1.6934 1.672-1.6934h5.902c1.094 0 1.857.2979 2.288.8937.442.5959.663 1.5001.663 2.7127 0 2.5192-.837 3.7788-2.509 3.7788h-.789v.0784l3.518 3.5124h-3.487l-2.493-2.8538c-.042-.0523-.126-.1411-.252-.2666a10.7387 10.7387 0 0 1-.284-.3136c-.064-.0731-.137-.1672-.221-.2822-.084-.115-.147-.23-.19-.345a1.3205 1.3205 0 0 1-.047-.3449v-.2509c0-.3763.131-.6324.394-.7683.264-.1464.674-.2195 1.231-.2195h.931c.505 0 .847-.1255 1.026-.3764.179-.2508.268-.669.268-1.2544 0-.5644-.1-.9564-.3-1.176-.199-.2195-.568-.3292-1.104-.3292h-2.635c-.274 0-.468.0574-.584.1724-.105.1046-.158.2927-.158.5645V24.08h-2.84Zm12.081 0v-9.2826c0-1.129.557-1.6934 1.672-1.6934h5.902c1.094 0 1.857.2979 2.288.8937.442.5959.663 1.5001.663 2.7127 0 2.5192-.837 3.7788-2.509 3.7788h-.789v.0784l3.519 3.5124h-3.488l-2.493-2.8538c-.042-.0523-.126-.1411-.252-.2666a10.7387 10.7387 0 0 1-.284-.3136 4.5639 4.5639 0 0 1-.221-.2822c-.084-.115-.147-.23-.19-.345a1.3205 1.3205 0 0 1-.047-.3449v-.2509c0-.3763.132-.6324.395-.7683.263-.1464.673-.2195 1.23-.2195h.931c.505 0 .847-.1255 1.026-.3764.179-.2508.268-.669.268-1.2544 0-.5644-.099-.9564-.3-1.176-.199-.2195-.568-.3292-1.104-.3292h-2.635c-.274 0-.468.0574-.584.1724-.105.1046-.158.2927-.158.5645V24.08h-2.84Zm14.874-10.8663c.705-.1568 1.625-.2352 2.761-.2352 1.136 0 2.057.0784 2.762.2352.705.1568 1.299.4443 1.783.8624.494.4181.836.9879 1.025 1.7091.201.7213.3 1.6569.3 2.8068 0 1.1498-.099 2.0854-.3 2.8067-.189.7213-.531 1.2962-1.025 1.7248-.484.4181-1.078.7056-1.783.8624-.705.1463-1.626.2195-2.762.2195-1.136 0-2.056-.0732-2.761-.2195-.705-.1568-1.304-.4443-1.799-.8624-.484-.4286-.826-1.0035-1.026-1.7248-.189-.7213-.284-1.6569-.284-2.8067 0-1.1499.095-2.0855.284-2.8068.2-.7212.542-1.291 1.026-1.7091.495-.4181 1.094-.7056 1.799-.8624Zm.41 2.697c-.41.4808-.615 1.3746-.615 2.6813 0 1.3066.205 2.2056.615 2.6969.421.4809 1.205.7213 2.351.7213 1.147 0 1.925-.2404 2.336-.7213.421-.4913.631-1.3903.631-2.6969 0-1.3067-.21-2.2005-.631-2.6813-.411-.4913-1.189-.737-2.336-.737-1.146 0-1.93.2457-2.351.737Zm12.442-2.697c.704-.1568 1.625-.2352 2.761-.2352 1.136 0 2.057.0784 2.762.2352.704.1568 1.299.4443 1.783.8624.494.4181.836.9879 1.025 1.7091.2.7213.3 1.6569.3 2.8068 0 1.1498-.1 2.0854-.3 2.8067-.189.7213-.531 1.2962-1.025 1.7248-.484.4181-1.079.7056-1.783.8624-.705.1463-1.626.2195-2.762.2195-1.136 0-2.057-.0732-2.761-.2195-.705-.1568-1.305-.4443-1.799-.8624-.484-.4286-.826-1.0035-1.026-1.7248-.189-.7213-.284-1.6569-.284-2.8067 0-1.1499.095-2.0855.284-2.8068.2-.7212.542-1.291 1.026-1.7091.494-.4181 1.094-.7056 1.799-.8624Zm.41 2.697c-.41.4808-.615 1.3746-.615 2.6813 0 1.3066.205 2.2056.615 2.6969.421.4809 1.204.7213 2.351.7213s1.925-.2404 2.336-.7213c.42-.4913.631-1.3903.631-2.6969 0-1.3067-.211-2.2005-.631-2.6813-.411-.4913-1.189-.737-2.336-.737-1.147 0-1.93.2457-2.351.737Zm12.489 8.1693h-2.841v-9.2826c0-1.129.558-1.6934 1.673-1.6934h7.574v2.1952h-5.665c-.273 0-.468.0574-.584.1724-.105.1046-.157.2927-.157.5645v1.4583h4.828v2.1952h-4.828V24.08Z"/></g><path fill="#848484" d="M73.67 42h-.72l-3.501-4.788V42h-.747v-6.003h.765l3.456 4.689v-4.689h.747V42Zm4.7701 0h-.675v-.495c-.366.402-.846.603-1.44.603-.402 0-.756-.129-1.062-.387-.306-.258-.459-.609-.459-1.053 0-.456.15-.807.45-1.053.306-.252.663-.378 1.071-.378.618 0 1.098.198 1.44.594v-.783c0-.288-.102-.513-.306-.675-.204-.162-.468-.243-.792-.243-.51 0-.954.201-1.332.603l-.315-.468c.462-.48 1.041-.72 1.737-.72.498 0 .903.12 1.215.36.312.24.468.609.468 1.107V42Zm-1.872-.378c.54 0 .939-.18 1.197-.54v-.819c-.258-.36-.657-.54-1.197-.54-.312 0-.57.09-.774.27-.198.174-.297.402-.297.684 0 .276.099.504.297.684.204.174.462.261.774.261Zm4.3231.486c-.318 0-.558-.087-.72-.261-.162-.174-.243-.426-.243-.756v-2.844h-.72v-.594h.72v-1.188h.675v1.188h.882v.594h-.882v2.7c0 .168.036.303.108.405.078.102.189.153.333.153.198 0 .351-.06.459-.18l.198.504c-.198.186-.468.279-.81.279Zm1.8805-5.076c-.12 0-.225-.042-.315-.126-.09-.09-.135-.198-.135-.324s.045-.234.135-.324c.09-.09.195-.135.315-.135.126 0 .234.045.324.135.09.09.135.198.135.324s-.045.234-.135.324c-.09.084-.198.126-.324.126Zm.342 4.968h-.675v-4.347h.675V42Zm4.8025-.549c-.39.438-.909.657-1.557.657-.648 0-1.17-.219-1.566-.657-.39-.438-.585-.981-.585-1.629s.195-1.188.585-1.62c.396-.438.918-.657 1.566-.657s1.167.219 1.557.657c.396.432.594.972.594 1.62 0 .648-.198 1.191-.594 1.629Zm-2.619-.432c.264.324.618.486 1.062.486.444 0 .795-.162 1.053-.486.258-.33.387-.729.387-1.197 0-.468-.129-.864-.387-1.188-.258-.324-.609-.486-1.053-.486-.444 0-.798.165-1.062.495-.258.324-.387.717-.387 1.179 0 .468.129.867.387 1.197Zm7.9223.981h-.675v-2.844c0-.366-.084-.624-.252-.774-.168-.156-.408-.234-.72-.234-.252 0-.498.066-.738.198-.234.132-.417.291-.549.477V42h-.675v-4.347h.675v.63c.168-.198.393-.369.675-.513.282-.15.573-.225.873-.225.924 0 1.386.468 1.386 1.404V42Zm4.7411 0h-.675v-.495c-.366.402-.846.603-1.44.603-.402 0-.756-.129-1.062-.387-.306-.258-.459-.609-.459-1.053 0-.456.15-.807.45-1.053.306-.252.663-.378 1.071-.378.618 0 1.098.198 1.44.594v-.783c0-.288-.102-.513-.306-.675-.204-.162-.468-.243-.792-.243-.51 0-.954.201-1.332.603l-.315-.468c.462-.48 1.041-.72 1.737-.72.498 0 .903.12 1.215.36.312.24.468.609.468 1.107V42Zm-1.872-.378c.54 0 .939-.18 1.197-.54v-.819c-.258-.36-.657-.54-1.197-.54-.312 0-.57.09-.774.27-.198.174-.297.402-.297.684 0 .276.099.504.297.684.204.174.462.261.774.261Zm3.9001.378h-.675v-6.003h.675V42Zm7.6263 0h-3.933v-6.003h3.933v.666h-3.186v1.935h3.123v.666h-3.123v2.07h3.186V42Zm4.764 0h-.783l-1.305-1.782L108.986 42h-.774l1.665-2.232-1.575-2.115h.783l1.206 1.656 1.206-1.656h.783l-1.575 2.115L112.379 42Zm1.875.108c-.318 0-.558-.087-.72-.261-.162-.174-.243-.426-.243-.756v-2.844h-.72v-.594h.72v-1.188h.675v1.188h.882v.594h-.882v2.7c0 .168.036.303.108.405.078.102.189.153.333.153.198 0 .351-.06.459-.18l.198.504c-.198.186-.468.279-.81.279Zm3.51 0c-.648 0-1.179-.21-1.593-.63-.414-.426-.621-.978-.621-1.656 0-.636.204-1.173.612-1.611.408-.444.918-.666 1.53-.666.642 0 1.149.222 1.521.666.378.438.567.993.567 1.665v.171h-3.519c.03.426.186.783.468 1.071.282.288.648.432 1.098.432.54 0 .987-.183 1.341-.549l.324.441c-.444.444-1.02.666-1.728.666Zm1.35-2.556c-.006-.372-.132-.705-.378-.999-.246-.3-.597-.45-1.053-.45-.432 0-.774.147-1.026.441-.246.294-.378.63-.396 1.008h2.853ZM121.548 42h-.675v-4.347h.675v.702c.402-.528.885-.792 1.449-.792v.693a1.2872 1.2872 0 0 0-.27-.027c-.204 0-.426.072-.666.216-.24.144-.411.303-.513.477V42Zm2.629-4.968c-.12 0-.225-.042-.315-.126-.09-.09-.135-.198-.135-.324s.045-.234.135-.324c.09-.09.195-.135.315-.135.126 0 .234.045.324.135.09.09.135.198.135.324s-.045.234-.135.324c-.09.084-.198.126-.324.126Zm.342 4.968h-.675v-4.347h.675V42Zm4.802-.549c-.39.438-.909.657-1.557.657-.648 0-1.17-.219-1.566-.657-.39-.438-.585-.981-.585-1.629s.195-1.188.585-1.62c.396-.438.918-.657 1.566-.657s1.167.219 1.557.657c.396.432.594.972.594 1.62 0 .648-.198 1.191-.594 1.629Zm-2.619-.432c.264.324.618.486 1.062.486.444 0 .795-.162 1.053-.486.258-.33.387-.729.387-1.197 0-.468-.129-.864-.387-1.188-.258-.324-.609-.486-1.053-.486-.444 0-.798.165-1.062.495-.258.324-.387.717-.387 1.179 0 .468.129.867.387 1.197Zm4.989.981h-.675v-4.347h.675v.702c.402-.528.885-.792 1.449-.792v.693a1.2872 1.2872 0 0 0-.27-.027c-.204 0-.426.072-.666.216-.24.144-.411.303-.513.477V42Zm3.673.108c-.738 0-1.323-.228-1.755-.684l.351-.486c.15.174.354.321.612.441.264.12.537.18.819.18.324 0 .576-.069.756-.207.18-.138.27-.318.27-.54 0-.192-.093-.342-.279-.45-.186-.114-.411-.198-.675-.252-.258-.06-.519-.126-.783-.198-.264-.078-.489-.207-.675-.387-.186-.186-.279-.429-.279-.729 0-.354.144-.651.432-.891.294-.24.69-.36 1.188-.36.654 0 1.191.21 1.611.63l-.315.468c-.306-.366-.738-.549-1.296-.549-.294 0-.528.066-.702.198-.174.126-.261.288-.261.486 0 .174.093.312.279.414.186.096.408.174.666.234.264.054.528.12.792.198.264.078.489.216.675.414.186.192.279.444.279.756 0 .384-.15.699-.45.945-.3.246-.72.369-1.26.369Zm7.997 0c-.876 0-1.611-.288-2.205-.864-.588-.582-.882-1.329-.882-2.241 0-.912.294-1.656.882-2.232.594-.582 1.329-.873 2.205-.873.96 0 1.719.396 2.277 1.188l-.63.351c-.174-.258-.408-.468-.702-.63a1.9277 1.9277 0 0 0-.945-.243c-.66 0-1.212.231-1.656.693-.438.456-.657 1.038-.657 1.746s.219 1.293.657 1.755c.444.456.996.684 1.656.684.336 0 .651-.078.945-.234.294-.162.528-.375.702-.639l.639.351c-.582.792-1.344 1.188-2.286 1.188Zm6.667-.657c-.39.438-.909.657-1.557.657-.648 0-1.17-.219-1.566-.657-.39-.438-.585-.981-.585-1.629s.195-1.188.585-1.62c.396-.438.918-.657 1.566-.657s1.167.219 1.557.657c.396.432.594.972.594 1.62 0 .648-.198 1.191-.594 1.629Zm-2.619-.432c.264.324.618.486 1.062.486.444 0 .795-.162 1.053-.486.258-.33.387-.729.387-1.197 0-.468-.129-.864-.387-1.188-.258-.324-.609-.486-1.053-.486-.444 0-.798.165-1.062.495-.258.324-.387.717-.387 1.179 0 .468.129.867.387 1.197Zm10.236.981h-.675v-2.952c0-.6-.267-.9-.801-.9-.216 0-.432.066-.648.198-.216.132-.384.288-.504.468V42h-.675v-2.952c0-.6-.267-.9-.801-.9-.21 0-.423.066-.639.198-.21.132-.378.291-.504.477V42h-.675v-4.347h.675v.63c.108-.168.297-.333.567-.495.27-.162.549-.243.837-.243.318 0 .576.075.774.225.198.15.33.345.396.585.132-.216.333-.405.603-.567.27-.162.555-.243.855-.243.81 0 1.215.438 1.215 1.314V42Zm3.488.108c-.612 0-1.101-.255-1.467-.765v2.313h-.675v-6.003h.675v.648c.162-.228.372-.411.63-.549.258-.138.537-.207.837-.207.576 0 1.041.207 1.395.621.36.408.54.96.54 1.656s-.18 1.251-.54 1.665c-.354.414-.819.621-1.395.621Zm-.171-.603c.426 0 .765-.156 1.017-.468.252-.318.378-.723.378-1.215 0-.492-.126-.894-.378-1.206-.252-.312-.591-.468-1.017-.468-.258 0-.51.069-.756.207-.24.132-.42.294-.54.486v1.962c.12.198.3.366.54.504.246.132.498.198.756.198Zm6.573.495h-.675v-.495c-.366.402-.846.603-1.44.603-.402 0-.756-.129-1.062-.387-.306-.258-.459-.609-.459-1.053 0-.456.15-.807.45-1.053.306-.252.663-.378 1.071-.378.618 0 1.098.198 1.44.594v-.783c0-.288-.102-.513-.306-.675-.204-.162-.468-.243-.792-.243-.51 0-.954.201-1.332.603l-.315-.468c.462-.48 1.041-.72 1.737-.72.498 0 .903.12 1.215.36.312.24.468.609.468 1.107V42Zm-1.872-.378c.54 0 .939-.18 1.197-.54v-.819c-.258-.36-.657-.54-1.197-.54-.312 0-.57.09-.774.27-.198.174-.297.402-.297.684 0 .276.099.504.297.684.204.174.462.261.774.261Zm6.834.378h-.675v-2.844c0-.366-.084-.624-.252-.774-.168-.156-.408-.234-.72-.234-.252 0-.498.066-.738.198-.234.132-.417.291-.549.477V42h-.675v-4.347h.675v.63c.168-.198.393-.369.675-.513.282-.15.573-.225.873-.225.924 0 1.386.468 1.386 1.404V42Zm1.105 1.701.108-.612c.108.048.231.072.369.072.156 0 .285-.033.387-.099.102-.066.189-.186.261-.36l.288-.657-1.818-4.392h.729l1.449 3.564 1.44-3.564h.738l-2.178 5.229c-.24.576-.666.87-1.278.882-.18 0-.345-.021-.495-.063Z"/><defs><linearGradient id="paint0_linear_1802_2735" x1="56.3553" x2="-10.9971" y1="-4.04052e-06" y2="34.5816" gradientUnits="userSpaceOnUse"><stop stop-color="#7D72A9"/><stop offset="1" stop-color="#9A8BDA"/></linearGradient><linearGradient id="paint1_linear_1802_2735" x1="56.3544" x2="-10.9981" y1="-3.63303e-05" y2="34.5816" gradientUnits="userSpaceOnUse"><stop stop-color="#7D72A9"/><stop offset="1" stop-color="#9A8BDA"/></linearGradient><linearGradient id="paint2_linear_1802_2735" x1="48.3053" x2="18.7158" y1="19" y2="49.3851" gradientUnits="userSpaceOnUse"><stop stop-color="#7D72A9"/><stop offset="1" stop-color="#9A8BDA"/></linearGradient><linearGradient id="paint3_linear_1802_2735" x1="48.3046" x2="18.7152" y1="18.9997" y2="49.3848" gradientUnits="userSpaceOnUse"><stop stop-color="#7D72A9"/><stop offset="1" stop-color="#9A8BDA"/></linearGradient><linearGradient id="paint4_linear_1802_2735" x1="48.3044" x2="18.715" y1="19.0001" y2="49.3852" gradientUnits="userSpaceOnUse"><stop stop-color="#7D72A9"/><stop offset="1" stop-color="#9A8BDA"/></linearGradient><linearGradient id="paint5_linear_1802_2735" x1="48.3038" x2="18.7143" y1="18.9999" y2="49.385" gradientUnits="userSpaceOnUse"><stop stop-color="#7D72A9"/><stop offset="1" stop-color="#9A8BDA"/></linearGradient><clipPath id="clip0_1802_2735"><path fill="#fff" d="M0 0h184v56H0z"/></clipPath></defs></svg>